<svg version="1.2" xmlns="http://www.w3.org/2000/svg" viewBox="0 0 150 50" width="150" height="50">
	<title>Equa11y: Accessibility Testing Utilities</title>
	<style>
		.s0 { fill: #ab1c18 } 
		.s1 { fill: #fdfbfb } 
		.s2 { fill: #fdfdfd } 
		.s3 { fill: #fdfefe } 
		.s4 { fill: #000000 } 
	</style>
	<g id="Layer 1">
		<path class="s0" d="m1.4 0.8q17.2 0 34.4 0 0.6 0.3 0.9 0.9 0 15.2 0 30.3-0.2 0.7-0.9 1-17.2 0-34.4 0-0.6-0.3-0.9-1 0-15.1 0-30.3 0.4-0.6 0.9-0.9z"/>
		<path class="s1" d="m8.1 3.3q10 0 20 0 0.4 0.2 0.6 0.6 0.1 6.8 0 13.6-0.1 0.4-0.5 0.5-10.1 0.1-20.2-0.1-0.3-0.2-0.4-0.4-0.1-6.8 0-13.6 0.2-0.4 0.5-0.6z"/>
		<path class="s0" d="m9.3 4.8q9-0.1 18 0.1 0.1 0.2 0.3 0.4 0.1 5.5 0 10.9-0.1 0.4-0.5 0.5-8.9 0.1-17.8 0-0.4-0.1-0.6-0.5 0-5.4 0-10.9 0.3-0.3 0.6-0.5z"/>
		<path class="s2" d="m15.6 7.9q1.8-0.2 2.6 1.4 1.1-2.1 3.2-1.1 1.7 1.5 0.3 3.3-1.6 1.3-3.3 2.6-0.2 0.1-0.3 0-1.5-1.1-3-2.3-1.5-1.3-0.7-3 0.5-0.6 1.2-0.9z"/>
		<path class="s3" d="m7.9 18.5q10.4-0.1 20.9 0.1 0.4 0.5 0.5 1.2 0.9 4.2 1.8 8.4 0.2 0.7-0.1 1.4-0.2 0.2-0.4 0.3-12.4 0.1-24.7 0-0.4-0.2-0.6-0.6 0-0.6 0.1-1.1 1-4.7 2-9.3 0.2-0.3 0.5-0.4z"/>
		<path class="s2" d="m5.4 30.3q12.8 0 25.7 0.1 0.2 0.7-0.5 1-12.4 0.1-24.7 0-0.8-0.3-0.5-1.1z"/>
		<path class="s4" d="m64.2 29.5v2.8h-13.3v-31.4h13.3v2.8h-10.2v11.3h9.5v2.9h-9.5v11.6zm39.4 9.9c0 0 4.6-2.5 13.7-2.3 6.8 0.1 17.9 2.2 17.9 2.2 1.1 0.2 1.4 0.2 2.7 0.2 0.3 0 0.5 0.1 0.8 0 0.8 0 1.5-0.3 1.8-0.6q0 0 0 0 0.4-0.2 0.6-0.6 0.2-0.4 0.4-1.1l1.1-4.9h-3l-4-21.4h2.9l1.5 10.2 1.7 8.8h1.3l1.8-8.8 1.6-10.2h2.9l-5 26.1q-0.2 0.8-0.4 1.5-0.5 1.5-1.4 2.3-0.5 0.4-1.1 0.6-1.3 0.5-3.4 0.5-0.5 0-1.1 0c-0.2 0-0.5 0-0.7 0-0.2 0-0.6-0.1-1-0.1-3.4-0.1-14.8-1.3-23.8 1.2-2.8 0.8-5.9 2-10.2 4.8-1.1 0.6 1.3-4.8 2.4-8.4zm-19.6-11.6v-16.9h2.8v17.2q0 0.3 0.1 0.6 0.1 0.6 0.6 1 0.7 0.5 2.2 0.5 1.6 0 2.8-0.5 0.4-0.3 0.9-0.6 0.5-0.4 0.8-0.9v-17.3h2.9v21.4h-2.9v-2h-0.6c-0.8 1.2-2 2-3.4 2.2q-0.6 0.1-1.3 0.1-1.5 0-2.6-0.5-0.6-0.2-1.1-0.6-0.6-0.6-0.8-1.3-0.4-1-0.4-2.4zm27.3-8.5v-4.1q0-0.4-0.1-0.7c-0.1-0.4-0.4-0.7-0.8-0.9q-0.6-0.4-2.1-0.5-0.3 0-0.7 0-0.5 0-0.9 0-1.1 0.1-1.8 0.4c-0.4 0.2-0.8 0.6-0.9 1.2q-0.1 0.2-0.1 0.4 0 0.4 0 1.1 0 0.3 0 0.5 0 0.3 0 0.7 0 0.6 0 1h-2.7q0-0.1-0.1-0.3 0-0.4 0-0.9 0-0.1 0-0.2-0.1-0.7 0-1.2 0-0.2 0-0.4 0.1-1.7 0.8-2.8 0.4-0.5 0.9-0.9 0.6-0.4 1.3-0.6 1.2-0.4 3-0.5 0.3 0 0.6 0 0.8 0 1.7 0.1 1.6 0.1 2.6 0.7 0.3 0.2 0.6 0.4 0.7 0.6 1 1.5 0.2 0.6 0.4 1.3 0 0.7 0 1.3v16.4h-2.7v-2h-0.7c-0.3 0.7-0.8 1.3-1.5 1.7q-1 0.6-2.9 0.6 0 0 0 0-0.8 0-1.5-0.1-1.6-0.2-2.5-1 0 0 0 0-0.7-0.6-1.1-1.5-0.2-0.6-0.4-1.3 0-0.2 0-0.5-0.1-0.4-0.1-0.9 0-0.2 0-0.4 0-0.2 0-0.4 0.1-0.9 0.4-1.7 0.3-0.9 0.9-1.6 1-1.4 4.1-2.5 1-0.4 2.1-0.7 0.2 0 0.5-0.1 1.3-0.3 2.7-0.6zm-31.3-8.4v28.6h-2.8v-9.2h-0.6q-0.8 1.2-1.9 1.7-0.8 0.5-2 0.6-0.3 0-0.7 0-0.7 0-1.4-0.1-1.5-0.3-2.4-1-0.6-0.6-0.9-1.3-0.2-0.6-0.3-1.3-0.1-0.5-0.1-1.1-0.1-0.4-0.1-0.8 0-0.4 0-0.9 0-0.5 0-0.9 0-1.6 0-3.4 0-1.7 0-3.5 0-0.7 0-1.4 0-0.8 0.1-1.6 0-0.6 0.1-1.3 0.1-0.7 0.4-1.2 0.3-0.6 0.8-1.1 0.5-0.5 1.2-0.7 1-0.4 2.5-0.4 0.5 0 1.1 0 0.5 0.1 0.9 0.2 0.4 0.1 0.9 0.4 0.6 0.3 1.1 0.8 0.3 0.4 0.6 0.9h0.7v-2zm42.9-10v31.4h-2.8v-28.1h-2.2l-0.2-1.3 2.9-2zm9.1 0v31.4h-2.8v-28.1h-2.1l-0.3-1.3 2.9-2zm-54.9 27.3v-13.2q-1-1.7-3.5-2-0.5 0-1 0-1.3 0-2 0.4-0.1 0-0.2 0.1-0.4 0.3-0.6 0.8-0.1 0.3-0.1 0.6 0 0.1 0 0.2-0.2 3.4-0.2 6.7 0 0.2 0 0.4 0 2 0.1 3.8 0 1 0.1 2.1 0 1.8 2.2 2 0.4 0.1 0.8 0.1 1.8 0 2.8-0.5 1-0.5 1.6-1.5zm34.1 0.1v-6.7q-1 0.2-1.9 0.4-0.1 0.1-0.3 0.1-0.4 0.1-0.9 0.3-0.8 0.2-1.7 0.5-0.4 0.2-0.9 0.4-0.9 0.4-1.3 0.9-0.1 0.1-0.2 0.2-0.6 0.9-0.7 2 0.1 0.4 0.1 0.8 0 0.3 0 0.6 0 0.1 0 0.2 0.1 0.5 0.4 1 0.3 0.4 0.7 0.6 0.5 0.3 1 0.4 0.5 0.1 1 0.2 0.2 0 0.3 0 0.8 0 1.5-0.2 2-0.3 2.9-1.7z"/>
	</g>
</svg>