<?xml version="1.0" encoding="utf-8"?>
<svg xmlns="http://www.w3.org/2000/svg" viewBox="139.3096 103.4995 273.0365 52.6404" width="274.99px" height="55.0004px">
  <g transform="matrix(0.09628400206565857, 0, 0, 0.0950000137090683, 139.35769653320318, 103.54695129394537)" style="">
    <path style="opacity:1" fill="#fefbfb" d="M -0.5,-0.5 C 3.16667,-0.5 6.83333,-0.5 10.5,-0.5C 5.83333,2.16667 2.16667,5.83333 -0.5,10.5C -0.5,6.83333 -0.5,3.16667 -0.5,-0.5 Z"/>
  </g>
  <g transform="matrix(0.09628400206565857, 0, 0, 0.0950000137090683, 140.35769653320318, 103.54695129394537)" style="">
    <path style="opacity: 1; fill: rgb(171, 28, 24);" d="M 10.5,-0.5 C 150.833,-0.5 291.167,-0.5 431.5,-0.5C 436.753,1.75103 440.753,5.4177 443.5,10.5C 443.5,136.167 443.5,261.833 443.5,387.5C 441.167,393.167 437.167,397.167 431.5,399.5C 291.167,399.5 150.833,399.5 10.5,399.5C 5.4177,396.753 1.75103,392.753 -0.5,387.5C -0.5,261.833 -0.5,136.167 -0.5,10.5C 2.16667,5.83333 5.83333,2.16667 10.5,-0.5 Z"/>
  </g>
  <g transform="matrix(0.09628400206565857, 0, 0, 0.0950000137090683, 139.35769653320318, 103.54695129394537)" style="">
    <path style="opacity:1" fill="#fefbfb" d="M 431.5,-0.5 C 435.5,-0.5 439.5,-0.5 443.5,-0.5C 443.5,3.16667 443.5,6.83333 443.5,10.5C 440.753,5.4177 436.753,1.75103 431.5,-0.5 Z"/>
  </g>
  <g transform="matrix(0.09628400206565857, 0, 0, 0.0950000137090683, 139.35769653320318, 103.54695129394537)" style="">
    <path style="opacity:1" fill="#fdfbfb" d="M 100.5,29.5 C 180.167,29.3333 259.834,29.5 339.5,30C 342.937,31.1049 345.437,33.2716 347,36.5C 347.667,91.5 347.667,146.5 347,201.5C 345.833,204.667 343.667,206.833 340.5,208C 259.752,208.994 179.085,208.661 98.5,207C 96.6217,205.457 95.1217,203.624 94,201.5C 93.3333,146.5 93.3333,91.5 94,36.5C 95.6941,33.6424 97.8607,31.309 100.5,29.5 Z"/>
  </g>
  <g transform="matrix(0.09628400206565857, 0, 0, 0.0950000137090683, 139.35769653320318, 103.54695129394537)" style="">
    <path style="opacity: 1; fill: rgb(171, 28, 24);" d="M 114.5,47.5 C 186.225,47.0096 257.891,47.5096 329.5,49C 331,50.5 332.5,52 334,53.5C 334.667,97.8333 334.667,142.167 334,186.5C 332.749,189.381 330.583,191.214 327.5,192C 256.5,192.667 185.5,192.667 114.5,192C 111.417,191.214 109.251,189.381 108,186.5C 107.333,142.167 107.333,97.8333 108,53.5C 110.063,51.2659 112.229,49.2659 114.5,47.5 Z"/>
  </g>
  <g transform="matrix(0.09628400206565857, 0, 0, 0.0950000137090683, 139.35769653320318, 103.54695129394537)" style="">
    <path style="opacity:1" fill="#fdfdfd" d="M 189.5,85.5 C 204.212,83.6217 214.879,89.2883 221.5,102.5C 229.887,85.8015 242.554,81.3015 259.5,89C 272.836,101.363 274.003,114.863 263,129.5C 249.833,140 236.667,150.5 223.5,161C 222.167,161.667 220.833,161.667 219.5,161C 207.5,151.667 195.5,142.333 183.5,133C 172.246,122.586 169.746,110.419 176,96.5C 179.819,91.8329 184.319,88.1663 189.5,85.5 Z"/>
  </g>
  <g transform="matrix(0.09628400206565857, 0, 0, 0.0950000137090683, 139.35769653320318, 103.54695129394537)" style="">
    <path style="opacity:1" fill="#fdfefe" d="M 97.5,213.5 C 180.891,213.008 264.224,213.508 347.5,215C 351.383,218.983 353.55,223.816 354,229.5C 360.786,263.549 367.786,297.549 375,331.5C 377.185,337.379 376.852,343.046 374,348.5C 372.59,349.787 371.09,350.954 369.5,352C 270.833,352.667 172.167,352.667 73.5,352C 70.2716,350.437 68.1049,347.937 67,344.5C 66.5752,340.131 66.9085,335.797 68,331.5C 76.1061,293.866 84.1061,256.2 92,218.5C 93.7297,216.598 95.563,214.931 97.5,213.5 Z"/>
  </g>
  <g transform="matrix(0.09628400206565857, 0, 0, 0.0950000137090683, 139.35769653320318, 103.54695129394537)" style="">
    <path style="opacity:1" fill="#fdfdfd" d="M 67.5,357.5 C 170.167,357.333 272.834,357.5 375.5,358C 377.347,363.98 375.347,368.313 369.5,371C 270.833,371.667 172.167,371.667 73.5,371C 67.4978,368.17 65.4978,363.67 67.5,357.5 Z"/>
  </g>
  <g transform="matrix(0.09628400206565857, 0, 0, 0.0950000137090683, 139.35769653320318, 103.54695129394537)" style="">
    <path style="opacity:1" fill="#fefbfb" d="M -0.5,387.5 C 1.75103,392.753 5.4177,396.753 10.5,399.5C 6.83333,399.5 3.16667,399.5 -0.5,399.5C -0.5,395.5 -0.5,391.5 -0.5,387.5 Z"/>
  </g>
  <g transform="matrix(0.09628400206565857, 0, 0, 0.0950000137090683, 139.35769653320318, 103.54695129394537)" style="">
    <path style="opacity:1" fill="#fefafa" d="M 443.5,387.5 C 443.5,391.5 443.5,395.5 443.5,399.5C 439.5,399.5 435.5,399.5 431.5,399.5C 437.167,397.167 441.167,393.167 443.5,387.5 Z"/>
  </g>
  <path d="M 327.143 116.895 L 325.895 116.895 L 327.881 104.344 L 330.395 104.344 L 332.398 116.895 L 331.15 116.895 L 330.606 113.415 L 327.688 113.415 L 327.143 116.895 Z M 328.197 109.556 L 327.802 112.29 L 330.491 112.29 L 330.113 109.547 L 329.498 105.469 L 328.804 105.469 L 328.197 109.556 Z M 338.766 111.349 L 337.659 111.349 C 337.682 111.143 337.692 110.909 337.689 110.646 C 337.686 110.382 337.685 110.177 337.685 110.031 C 337.679 109.72 337.557 109.506 337.32 109.389 C 337.083 109.271 336.695 109.213 336.156 109.213 C 335.605 109.213 335.213 109.271 334.978 109.389 C 334.743 109.506 334.623 109.72 334.618 110.031 C 334.577 110.951 334.556 111.808 334.556 112.602 C 334.556 113.395 334.577 114.249 334.618 115.164 C 334.623 115.486 334.743 115.708 334.978 115.832 C 335.213 115.954 335.602 116.016 336.147 116.016 C 336.686 116.016 337.076 115.954 337.316 115.832 C 337.556 115.708 337.679 115.486 337.685 115.164 C 337.685 115.005 337.686 114.813 337.689 114.588 C 337.692 114.362 337.682 114.114 337.659 113.845 L 338.766 113.845 C 338.795 114.015 338.809 114.212 338.806 114.438 C 338.803 114.664 338.795 114.867 338.784 115.049 C 338.749 115.74 338.533 116.238 338.138 116.543 C 337.742 116.847 337.078 117 336.147 117 C 335.21 117 334.537 116.847 334.13 116.543 C 333.723 116.238 333.504 115.74 333.475 115.049 C 333.452 114.615 333.436 114.106 333.427 113.52 C 333.418 112.934 333.418 112.345 333.427 111.753 C 333.436 111.161 333.452 110.646 333.475 110.207 C 333.504 109.497 333.726 108.99 334.139 108.686 C 334.552 108.381 335.224 108.229 336.156 108.229 C 337.081 108.229 337.748 108.378 338.155 108.677 C 338.562 108.975 338.772 109.468 338.784 110.154 C 338.795 110.329 338.803 110.53 338.806 110.756 C 338.809 110.981 338.795 111.179 338.766 111.349 Z M 345.408 111.349 L 344.3 111.349 C 344.323 111.143 344.334 110.909 344.331 110.646 C 344.328 110.382 344.327 110.177 344.327 110.031 C 344.321 109.72 344.199 109.506 343.962 109.389 C 343.725 109.271 343.336 109.213 342.797 109.213 C 342.246 109.213 341.854 109.271 341.62 109.389 C 341.385 109.506 341.265 109.72 341.259 110.031 C 341.218 110.951 341.198 111.808 341.198 112.602 C 341.198 113.395 341.218 114.249 341.259 115.164 C 341.265 115.486 341.385 115.708 341.62 115.832 C 341.854 115.954 342.244 116.016 342.789 116.016 C 343.328 116.016 343.717 115.954 343.957 115.832 C 344.198 115.708 344.321 115.486 344.327 115.164 C 344.327 115.005 344.328 114.813 344.331 114.588 C 344.334 114.362 344.323 114.114 344.3 113.845 L 345.408 113.845 C 345.437 114.015 345.45 114.212 345.447 114.438 C 345.444 114.664 345.437 114.867 345.425 115.049 C 345.39 115.74 345.175 116.238 344.779 116.543 C 344.384 116.847 343.72 117 342.789 117 C 341.851 117 341.178 116.847 340.771 116.543 C 340.364 116.238 340.146 115.74 340.117 115.049 C 340.093 114.615 340.077 114.106 340.068 113.52 C 340.059 112.934 340.059 112.345 340.068 111.753 C 340.077 111.161 340.093 110.646 340.117 110.207 C 340.146 109.497 340.367 108.99 340.78 108.686 C 341.193 108.381 341.866 108.229 342.797 108.229 C 343.723 108.229 344.39 108.378 344.797 108.677 C 345.204 108.975 345.414 109.468 345.425 110.154 C 345.437 110.329 345.444 110.53 345.447 110.756 C 345.45 110.981 345.437 111.179 345.408 111.349 Z M 349.492 117 C 348.525 117 347.835 116.847 347.422 116.543 C 347.009 116.238 346.787 115.74 346.758 115.049 C 346.735 114.615 346.719 114.106 346.71 113.52 C 346.701 112.934 346.701 112.345 346.71 111.753 C 346.719 111.161 346.735 110.646 346.758 110.207 C 346.787 109.497 347.014 108.99 347.439 108.686 C 347.864 108.381 348.549 108.229 349.492 108.229 C 350.383 108.229 351.027 108.378 351.425 108.677 C 351.824 108.975 352.043 109.468 352.084 110.154 C 352.096 110.358 352.108 110.716 352.12 111.226 C 352.131 111.736 352.114 112.278 352.067 112.852 L 347.857 112.852 C 347.857 113.221 347.86 113.596 347.866 113.977 C 347.871 114.357 347.883 114.753 347.901 115.164 C 347.907 115.486 348.03 115.708 348.27 115.832 C 348.51 115.954 348.905 116.016 349.456 116.016 C 350.001 116.016 350.385 115.954 350.608 115.832 C 350.831 115.708 350.954 115.486 350.977 115.164 C 350.994 114.841 350.994 114.401 350.977 113.845 L 352.067 113.845 C 352.096 114.015 352.109 114.212 352.106 114.438 C 352.103 114.664 352.096 114.867 352.084 115.049 C 352.043 115.74 351.834 116.238 351.456 116.543 C 351.078 116.847 350.423 117 349.492 117 Z M 347.857 111.92 L 350.995 111.92 C 351.006 111.522 351.012 111.141 351.012 110.778 C 351.012 110.414 351 110.165 350.977 110.031 C 350.954 109.737 350.828 109.528 350.599 109.402 C 350.37 109.276 350.001 109.213 349.492 109.213 C 348.923 109.213 348.517 109.276 348.274 109.402 C 348.031 109.528 347.907 109.737 347.901 110.031 C 347.883 110.371 347.87 110.696 347.861 111.006 C 347.852 111.316 347.851 111.621 347.857 111.92 Z M 355.918 117 C 354.975 117 354.32 116.847 353.953 116.543 C 353.587 116.238 353.389 115.74 353.36 115.049 C 353.349 114.867 353.341 114.664 353.338 114.438 C 353.335 114.212 353.346 114.015 353.369 113.845 L 354.397 113.845 C 354.386 114.114 354.381 114.362 354.384 114.588 C 354.387 114.813 354.391 115.005 354.397 115.164 C 354.403 115.486 354.516 115.708 354.736 115.832 C 354.955 115.954 355.349 116.016 355.918 116.016 C 356.498 116.016 356.907 115.954 357.144 115.832 C 357.381 115.708 357.509 115.486 357.526 115.164 C 357.544 114.964 357.556 114.816 357.561 114.72 C 357.567 114.623 357.567 114.484 357.561 114.302 C 357.544 114.003 357.465 113.772 357.324 113.608 C 357.183 113.444 356.879 113.326 356.41 113.256 L 355.382 113.019 C 354.855 112.907 354.447 112.767 354.16 112.597 C 353.873 112.427 353.671 112.206 353.554 111.934 C 353.437 111.661 353.366 111.317 353.343 110.901 C 353.325 110.689 353.34 110.458 353.387 110.207 C 353.398 109.497 353.59 108.99 353.962 108.686 C 354.334 108.381 355.012 108.229 355.997 108.229 C 356.94 108.229 357.595 108.378 357.961 108.677 C 358.328 108.975 358.528 109.468 358.563 110.154 C 358.563 110.329 358.562 110.53 358.559 110.756 C 358.556 110.981 358.545 111.179 358.528 111.349 L 357.465 111.349 C 357.494 111.143 357.507 110.909 357.504 110.646 C 357.501 110.382 357.494 110.177 357.482 110.031 C 357.476 109.72 357.369 109.506 357.161 109.389 C 356.953 109.271 356.565 109.213 355.997 109.213 C 355.423 109.213 355.032 109.271 354.824 109.389 C 354.616 109.506 354.5 109.72 354.476 110.031 C 354.471 110.177 354.462 110.298 354.45 110.395 C 354.438 110.492 354.435 110.625 354.441 110.795 C 354.459 111 354.49 111.182 354.533 111.34 C 354.577 111.498 354.677 111.629 354.832 111.731 C 354.987 111.833 355.241 111.911 355.593 111.964 L 356.577 112.166 C 357.292 112.312 357.813 112.54 358.141 112.848 C 358.47 113.155 358.634 113.619 358.634 114.241 C 358.634 114.369 358.632 114.507 358.629 114.654 C 358.626 114.8 358.619 114.941 358.607 115.076 C 358.566 115.761 358.351 116.253 357.961 116.552 C 357.572 116.85 356.891 117 355.918 117 Z M 362.373 117 C 361.43 117 360.775 116.847 360.408 116.543 C 360.042 116.238 359.844 115.74 359.815 115.049 C 359.804 114.867 359.796 114.664 359.793 114.438 C 359.79 114.212 359.801 114.015 359.824 113.845 L 360.852 113.845 C 360.841 114.114 360.836 114.362 360.839 114.588 C 360.842 114.813 360.846 115.005 360.852 115.164 C 360.858 115.486 360.971 115.708 361.191 115.832 C 361.41 115.954 361.804 116.016 362.373 116.016 C 362.953 116.016 363.362 115.954 363.599 115.832 C 363.836 115.708 363.964 115.486 363.981 115.164 C 363.999 114.964 364.011 114.816 364.016 114.72 C 364.022 114.623 364.022 114.484 364.016 114.302 C 363.999 114.003 363.92 113.772 363.779 113.608 C 363.638 113.444 363.334 113.326 362.865 113.256 L 361.837 113.019 C 361.31 112.907 360.902 112.767 360.615 112.597 C 360.328 112.427 360.126 112.206 360.009 111.934 C 359.892 111.661 359.821 111.317 359.798 110.901 C 359.78 110.689 359.795 110.458 359.842 110.207 C 359.853 109.497 360.045 108.99 360.417 108.686 C 360.789 108.381 361.467 108.229 362.452 108.229 C 363.395 108.229 364.05 108.378 364.416 108.677 C 364.783 108.975 364.983 109.468 365.018 110.154 C 365.018 110.329 365.017 110.53 365.014 110.756 C 365.011 110.981 365 111.179 364.983 111.349 L 363.92 111.349 C 363.949 111.143 363.962 110.909 363.959 110.646 C 363.956 110.382 363.949 110.177 363.937 110.031 C 363.931 109.72 363.824 109.506 363.616 109.389 C 363.408 109.271 363.02 109.213 362.452 109.213 C 361.878 109.213 361.487 109.271 361.279 109.389 C 361.071 109.506 360.955 109.72 360.931 110.031 C 360.926 110.177 360.917 110.298 360.905 110.395 C 360.893 110.492 360.89 110.625 360.896 110.795 C 360.914 111 360.945 111.182 360.988 111.34 C 361.032 111.498 361.132 111.629 361.287 111.731 C 361.442 111.833 361.696 111.911 362.048 111.964 L 363.032 112.166 C 363.747 112.312 364.268 112.54 364.596 112.848 C 364.925 113.155 365.089 113.619 365.089 114.241 C 365.089 114.369 365.087 114.507 365.084 114.654 C 365.081 114.8 365.074 114.941 365.062 115.076 C 365.021 115.761 364.806 116.253 364.416 116.552 C 364.027 116.85 363.346 117 362.373 117 Z M 367.833 106.752 L 366.699 106.752 L 366.699 105.487 L 367.833 105.487 L 367.833 106.752 Z M 367.833 116.895 L 366.691 116.895 L 366.691 108.343 L 367.833 108.343 L 367.833 116.895 Z M 372.923 117 C 372.442 117 372.061 116.924 371.78 116.772 C 371.499 116.619 371.253 116.39 371.042 116.086 L 370.822 116.086 L 370.822 116.895 L 369.689 116.895 L 369.689 105.487 L 370.822 105.487 L 370.822 109.143 L 371.095 109.143 C 371.306 108.832 371.55 108.602 371.829 108.453 C 372.107 108.303 372.489 108.229 372.976 108.229 C 373.649 108.229 374.143 108.374 374.457 108.664 C 374.77 108.954 374.936 109.439 374.953 110.119 C 374.976 110.634 374.991 111.188 374.997 111.78 C 375.003 112.371 375.003 112.954 374.997 113.529 C 374.991 114.103 374.976 114.63 374.953 115.111 C 374.936 115.785 374.761 116.268 374.43 116.561 C 374.099 116.853 373.597 117 372.923 117 Z M 372.642 116.042 C 373.058 116.042 373.357 115.974 373.538 115.84 C 373.72 115.705 373.817 115.494 373.828 115.208 C 373.869 114.44 373.89 113.603 373.89 112.698 C 373.89 111.792 373.869 110.9 373.828 110.022 C 373.817 109.729 373.72 109.517 373.538 109.385 C 373.357 109.253 373.058 109.187 372.642 109.187 C 371.733 109.187 371.127 109.453 370.822 109.987 L 370.822 115.243 C 371.133 115.775 371.739 116.042 372.642 116.042 Z M 377.855 106.752 L 376.722 106.752 L 376.722 105.487 L 377.855 105.487 L 377.855 106.752 Z M 377.855 116.895 L 376.713 116.895 L 376.713 108.343 L 377.855 108.343 L 377.855 116.895 Z M 381.064 116.895 L 379.922 116.895 L 379.922 105.487 L 381.064 105.487 L 381.064 116.895 Z M 384.273 106.752 L 383.139 106.752 L 383.139 105.487 L 384.273 105.487 L 384.273 106.752 Z M 384.273 116.895 L 383.13 116.895 L 383.13 108.343 L 384.273 108.343 L 384.273 116.895 Z M 388.827 117 C 387.912 117 387.295 116.847 386.976 116.543 C 386.657 116.238 386.497 115.74 386.497 115.049 L 386.497 109.328 L 385.654 109.328 L 385.654 108.343 L 386.524 108.343 L 386.524 105.917 L 387.64 105.917 L 387.64 108.343 L 389.574 108.343 L 389.574 109.328 L 387.631 109.328 L 387.631 115.172 C 387.631 115.494 387.698 115.717 387.833 115.84 C 387.968 115.963 388.308 116.025 388.853 116.025 C 389.076 116.025 389.247 116.02 389.367 116.012 C 389.487 116.003 389.626 115.996 389.785 115.99 L 389.785 116.93 C 389.644 116.953 389.492 116.971 389.328 116.983 C 389.163 116.994 388.996 117 388.827 117 Z M 391.486 119.822 C 391.299 119.822 391.075 119.813 390.814 119.795 C 390.553 119.777 390.338 119.76 390.168 119.743 L 390.168 118.767 C 390.531 118.796 390.959 118.811 391.451 118.811 C 391.972 118.811 392.325 118.748 392.51 118.622 C 392.695 118.496 392.819 118.274 392.884 117.958 L 393.139 116.895 L 391.952 116.895 L 390.37 108.343 L 391.53 108.343 L 392.119 112.421 L 392.796 115.919 L 393.332 115.919 L 394.053 112.421 L 394.677 108.343 L 395.846 108.343 L 394 117.871 C 393.889 118.562 393.654 119.06 393.297 119.365 C 392.94 119.669 392.336 119.822 391.486 119.822 Z M 329.329 136.895 L 328.107 136.895 L 328.107 125.469 L 325.708 125.469 L 325.708 124.344 L 331.737 124.344 L 331.737 125.469 L 329.329 125.469 L 329.329 136.895 Z M 335.281 137 C 334.314 137 333.624 136.847 333.211 136.543 C 332.798 136.238 332.576 135.74 332.547 135.049 C 332.524 134.615 332.508 134.106 332.499 133.52 C 332.49 132.934 332.49 132.345 332.499 131.753 C 332.508 131.161 332.524 130.646 332.547 130.207 C 332.576 129.497 332.803 128.99 333.228 128.686 C 333.653 128.381 334.338 128.229 335.281 128.229 C 336.172 128.229 336.816 128.378 337.214 128.677 C 337.613 128.975 337.832 129.468 337.873 130.154 C 337.885 130.358 337.897 130.716 337.909 131.226 C 337.92 131.736 337.903 132.278 337.856 132.852 L 333.646 132.852 C 333.646 133.221 333.649 133.596 333.655 133.977 C 333.66 134.357 333.672 134.753 333.69 135.164 C 333.696 135.486 333.819 135.708 334.059 135.832 C 334.299 135.954 334.694 136.016 335.245 136.016 C 335.79 136.016 336.174 135.954 336.397 135.832 C 336.62 135.708 336.743 135.486 336.766 135.164 C 336.783 134.841 336.783 134.401 336.766 133.845 L 337.856 133.845 C 337.885 134.015 337.898 134.212 337.895 134.438 C 337.892 134.664 337.885 134.867 337.873 135.049 C 337.832 135.74 337.623 136.238 337.245 136.543 C 336.867 136.847 336.212 137 335.281 137 Z M 333.646 131.92 L 336.784 131.92 C 336.795 131.522 336.801 131.141 336.801 130.778 C 336.801 130.414 336.789 130.165 336.766 130.031 C 336.743 129.737 336.617 129.528 336.388 129.402 C 336.159 129.276 335.79 129.213 335.281 129.213 C 334.712 129.213 334.306 129.276 334.063 129.402 C 333.82 129.528 333.696 129.737 333.69 130.031 C 333.672 130.371 333.659 130.696 333.65 131.006 C 333.641 131.316 333.64 131.621 333.646 131.92 Z M 341.707 137 C 340.764 137 340.109 136.847 339.742 136.543 C 339.376 136.238 339.178 135.74 339.149 135.049 C 339.138 134.867 339.13 134.664 339.127 134.438 C 339.124 134.212 339.135 134.015 339.158 133.845 L 340.186 133.845 C 340.175 134.114 340.17 134.362 340.173 134.588 C 340.176 134.813 340.18 135.005 340.186 135.164 C 340.192 135.486 340.305 135.708 340.525 135.832 C 340.744 135.954 341.138 136.016 341.707 136.016 C 342.287 136.016 342.696 135.954 342.933 135.832 C 343.17 135.708 343.298 135.486 343.315 135.164 C 343.333 134.964 343.345 134.816 343.35 134.72 C 343.356 134.623 343.356 134.484 343.35 134.302 C 343.333 134.003 343.254 133.772 343.113 133.608 C 342.972 133.444 342.668 133.326 342.199 133.256 L 341.171 133.019 C 340.644 132.907 340.236 132.767 339.949 132.597 C 339.662 132.427 339.46 132.206 339.343 131.934 C 339.226 131.661 339.155 131.317 339.132 130.901 C 339.114 130.689 339.129 130.458 339.176 130.207 C 339.187 129.497 339.379 128.99 339.751 128.686 C 340.123 128.381 340.801 128.229 341.786 128.229 C 342.729 128.229 343.384 128.378 343.75 128.677 C 344.117 128.975 344.317 129.468 344.352 130.154 C 344.352 130.329 344.351 130.53 344.348 130.756 C 344.345 130.981 344.334 131.179 344.317 131.349 L 343.254 131.349 C 343.283 131.143 343.296 130.909 343.293 130.646 C 343.29 130.382 343.283 130.177 343.271 130.031 C 343.265 129.72 343.158 129.506 342.95 129.389 C 342.742 129.271 342.354 129.213 341.786 129.213 C 341.212 129.213 340.821 129.271 340.613 129.389 C 340.405 129.506 340.289 129.72 340.265 130.031 C 340.26 130.177 340.251 130.298 340.239 130.395 C 340.227 130.492 340.224 130.625 340.23 130.795 C 340.248 131 340.279 131.182 340.323 131.34 C 340.366 131.498 340.466 131.629 340.621 131.731 C 340.776 131.833 341.03 131.911 341.382 131.964 L 342.366 132.166 C 343.081 132.312 343.602 132.54 343.93 132.848 C 344.259 133.155 344.423 133.619 344.423 134.241 C 344.423 134.369 344.421 134.507 344.418 134.654 C 344.415 134.8 344.408 134.941 344.396 135.076 C 344.355 135.761 344.14 136.253 343.75 136.552 C 343.361 136.85 342.68 137 341.707 137 Z M 348.505 137 C 347.59 137 346.973 136.847 346.654 136.543 C 346.335 136.238 346.175 135.74 346.175 135.049 L 346.175 129.328 L 345.332 129.328 L 345.332 128.343 L 346.202 128.343 L 346.202 125.917 L 347.318 125.917 L 347.318 128.343 L 349.252 128.343 L 349.252 129.328 L 347.309 129.328 L 347.309 135.172 C 347.309 135.494 347.376 135.717 347.511 135.84 C 347.646 135.963 347.986 136.025 348.531 136.025 C 348.754 136.025 348.925 136.02 349.045 136.012 C 349.165 136.003 349.304 135.996 349.463 135.99 L 349.463 136.93 C 349.322 136.953 349.17 136.971 349.006 136.983 C 348.841 136.994 348.674 137 348.505 137 Z M 351.727 126.752 L 350.593 126.752 L 350.593 125.487 L 351.727 125.487 L 351.727 126.752 Z M 351.727 136.895 L 350.584 136.895 L 350.584 128.343 L 351.727 128.343 L 351.727 136.895 Z M 354.716 136.895 L 353.582 136.895 L 353.582 128.343 L 354.716 128.343 L 354.716 129.143 L 354.988 129.143 C 355.17 128.85 355.409 128.624 355.705 128.466 C 356.001 128.308 356.374 128.229 356.825 128.229 C 357.488 128.229 357.98 128.374 358.302 128.664 C 358.624 128.954 358.785 129.439 358.785 130.119 L 358.785 136.895 L 357.66 136.895 L 357.66 130.022 C 357.66 129.729 357.568 129.517 357.383 129.385 C 357.199 129.253 356.902 129.187 356.491 129.187 C 356.081 129.187 355.721 129.257 355.41 129.398 C 355.099 129.538 354.868 129.735 354.716 129.987 L 354.716 136.895 Z M 362.789 139.365 C 361.992 139.365 361.35 139.265 360.864 139.066 C 360.377 138.866 360.119 138.553 360.09 138.125 C 360.09 138.078 360.087 138.022 360.082 137.958 C 360.076 137.894 360.073 137.826 360.073 137.756 C 360.096 137.498 360.227 137.29 360.464 137.132 C 360.701 136.974 360.975 136.877 361.286 136.842 L 361.286 136.623 C 360.706 136.499 360.407 136.247 360.389 135.867 C 360.383 135.767 360.383 135.667 360.389 135.568 C 360.395 135.368 360.487 135.201 360.666 135.067 C 360.845 134.932 361.045 134.853 361.268 134.83 L 361.268 134.61 C 360.659 134.346 360.334 133.763 360.293 132.861 C 360.275 132.509 360.262 132.202 360.253 131.942 C 360.244 131.681 360.243 131.417 360.249 131.151 C 360.254 130.884 360.269 130.569 360.293 130.207 C 360.322 129.509 360.525 129.005 360.903 128.695 C 361.281 128.384 361.886 128.229 362.718 128.229 C 363.327 128.229 363.811 128.299 364.169 128.44 C 364.526 128.58 364.784 128.8 364.942 129.099 L 365.188 129.099 C 365.229 128.595 365.607 128.343 366.322 128.343 L 366.322 129.328 L 366.014 129.328 C 365.493 129.328 365.22 129.629 365.197 130.233 L 365.179 130.927 C 365.191 131.267 365.197 131.574 365.197 131.85 C 365.197 132.125 365.179 132.462 365.144 132.861 C 365.115 133.569 364.915 134.076 364.546 134.381 C 364.177 134.685 363.568 134.838 362.718 134.838 C 362.226 134.832 361.869 134.871 361.646 134.953 C 361.423 135.035 361.312 135.169 361.312 135.357 L 361.312 135.427 C 361.324 135.597 361.447 135.717 361.681 135.788 C 361.916 135.858 362.305 135.899 362.85 135.911 C 363.723 135.934 364.393 136.058 364.858 136.284 C 365.324 136.51 365.578 136.883 365.619 137.405 L 365.619 137.862 C 365.578 138.412 365.296 138.8 364.775 139.026 C 364.254 139.252 363.592 139.365 362.789 139.365 Z M 362.718 133.845 C 363.187 133.845 363.519 133.78 363.716 133.652 C 363.912 133.522 364.019 133.311 364.037 133.019 C 364.066 132.603 364.081 132.118 364.081 131.564 C 364.081 131.01 364.066 130.505 364.037 130.048 C 364.019 129.738 363.91 129.521 363.711 129.398 C 363.512 129.274 363.181 129.213 362.718 129.213 C 362.255 129.213 361.924 129.276 361.725 129.402 C 361.526 129.528 361.414 129.746 361.391 130.057 C 361.327 131.17 361.327 132.151 361.391 133.001 C 361.414 133.288 361.529 133.501 361.734 133.639 C 361.939 133.776 362.267 133.845 362.718 133.845 Z M 362.815 138.433 C 363.319 138.433 363.731 138.386 364.05 138.292 C 364.369 138.198 364.541 138.031 364.564 137.791 C 364.57 137.727 364.571 137.667 364.568 137.611 C 364.565 137.555 364.564 137.498 364.564 137.44 C 364.541 137.188 364.372 137.025 364.059 136.952 C 363.745 136.878 363.33 136.836 362.815 136.825 C 362.317 136.813 361.92 136.851 361.624 136.939 C 361.328 137.027 361.165 137.197 361.136 137.449 L 361.136 137.791 C 361.165 138.049 361.329 138.22 361.628 138.306 C 361.927 138.39 362.323 138.433 362.815 138.433 Z M 373.831 137.009 C 372.7 137.009 371.883 136.836 371.379 136.491 C 370.875 136.145 370.62 135.576 370.614 134.786 C 370.532 131.305 370.532 127.824 370.614 124.344 L 371.836 124.344 C 371.801 126.078 371.777 127.852 371.766 129.666 C 371.754 131.479 371.763 133.256 371.792 134.997 C 371.792 135.635 372.472 135.955 373.831 135.955 C 374.534 135.955 375.041 135.875 375.352 135.717 C 375.663 135.559 375.818 135.319 375.818 134.997 C 375.847 133.256 375.861 131.479 375.861 129.666 C 375.861 127.852 375.847 126.078 375.818 124.344 L 377.039 124.344 C 377.11 127.824 377.11 131.305 377.039 134.786 C 377.033 135.576 376.778 136.145 376.275 136.491 C 375.771 136.836 374.956 137.009 373.831 137.009 Z M 381.287 137 C 380.373 137 379.756 136.847 379.437 136.543 C 379.118 136.238 378.958 135.74 378.958 135.049 L 378.958 129.328 L 378.114 129.328 L 378.114 128.343 L 378.984 128.343 L 378.984 125.917 L 380.101 125.917 L 380.101 128.343 L 382.034 128.343 L 382.034 129.328 L 380.092 129.328 L 380.092 135.172 C 380.092 135.494 380.159 135.717 380.294 135.84 C 380.429 135.963 380.768 136.025 381.313 136.025 C 381.536 136.025 381.707 136.02 381.828 136.012 C 381.948 136.003 382.087 135.996 382.245 135.99 L 382.245 136.93 C 382.104 136.953 381.952 136.971 381.788 136.983 C 381.624 136.994 381.457 137 381.287 137 Z M 384.517 126.752 L 383.383 126.752 L 383.383 125.487 L 384.517 125.487 L 384.517 126.752 Z M 384.517 136.895 L 383.374 136.895 L 383.374 128.343 L 384.517 128.343 L 384.517 136.895 Z M 387.718 136.895 L 386.576 136.895 L 386.576 125.487 L 387.718 125.487 L 387.718 136.895 Z M 390.927 126.752 L 389.793 126.752 L 389.793 125.487 L 390.927 125.487 L 390.927 126.752 Z M 390.927 136.895 L 389.784 136.895 L 389.784 128.343 L 390.927 128.343 L 390.927 136.895 Z M 395.481 137 C 394.566 137 393.949 136.847 393.63 136.543 C 393.311 136.238 393.151 135.74 393.151 135.049 L 393.151 129.328 L 392.308 129.328 L 392.308 128.343 L 393.178 128.343 L 393.178 125.917 L 394.294 125.917 L 394.294 128.343 L 396.228 128.343 L 396.228 129.328 L 394.285 129.328 L 394.285 135.172 C 394.285 135.494 394.352 135.717 394.487 135.84 C 394.622 135.963 394.962 136.025 395.507 136.025 C 395.73 136.025 395.901 136.02 396.021 136.012 C 396.141 136.003 396.28 135.996 396.439 135.99 L 396.439 136.93 C 396.298 136.953 396.146 136.971 395.982 136.983 C 395.817 136.994 395.65 137 395.481 137 Z M 398.703 126.752 L 397.569 126.752 L 397.569 125.487 L 398.703 125.487 L 398.703 126.752 Z M 398.703 136.895 L 397.56 136.895 L 397.56 128.343 L 398.703 128.343 L 398.703 136.895 Z M 403.204 137 C 402.237 137 401.547 136.847 401.134 136.543 C 400.721 136.238 400.499 135.74 400.47 135.049 C 400.447 134.615 400.431 134.106 400.422 133.52 C 400.413 132.934 400.413 132.345 400.422 131.753 C 400.431 131.161 400.447 130.646 400.47 130.207 C 400.499 129.497 400.726 128.99 401.151 128.686 C 401.576 128.381 402.261 128.229 403.204 128.229 C 404.095 128.229 404.739 128.378 405.137 128.677 C 405.536 128.975 405.755 129.468 405.796 130.154 C 405.808 130.358 405.82 130.716 405.832 131.226 C 405.843 131.736 405.826 132.278 405.779 132.852 L 401.569 132.852 C 401.569 133.221 401.572 133.596 401.578 133.977 C 401.583 134.357 401.595 134.753 401.613 135.164 C 401.619 135.486 401.742 135.708 401.982 135.832 C 402.222 135.954 402.618 136.016 403.169 136.016 C 403.714 136.016 404.097 135.954 404.32 135.832 C 404.543 135.708 404.666 135.486 404.689 135.164 C 404.706 134.841 404.706 134.401 404.689 133.845 L 405.779 133.845 C 405.808 134.015 405.821 134.212 405.818 134.438 C 405.815 134.664 405.808 134.867 405.796 135.049 C 405.755 135.74 405.546 136.238 405.168 136.543 C 404.79 136.847 404.135 137 403.204 137 Z M 401.569 131.92 L 404.707 131.92 C 404.718 131.522 404.724 131.141 404.724 130.778 C 404.724 130.414 404.712 130.165 404.689 130.031 C 404.666 129.737 404.54 129.528 404.311 129.402 C 404.082 129.276 403.713 129.213 403.204 129.213 C 402.635 129.213 402.229 129.276 401.986 129.402 C 401.743 129.528 401.619 129.737 401.613 130.031 C 401.595 130.371 401.582 130.696 401.573 131.006 C 401.564 131.316 401.563 131.621 401.569 131.92 Z M 409.63 137 C 408.687 137 408.032 136.847 407.665 136.543 C 407.299 136.238 407.101 135.74 407.072 135.049 C 407.061 134.867 407.053 134.664 407.05 134.438 C 407.047 134.212 407.058 134.015 407.081 133.845 L 408.109 133.845 C 408.098 134.114 408.093 134.362 408.096 134.588 C 408.099 134.813 408.104 135.005 408.109 135.164 C 408.115 135.486 408.228 135.708 408.448 135.832 C 408.667 135.954 409.061 136.016 409.63 136.016 C 410.21 136.016 410.619 135.954 410.856 135.832 C 411.093 135.708 411.221 135.486 411.238 135.164 C 411.256 134.964 411.268 134.816 411.273 134.72 C 411.279 134.623 411.279 134.484 411.273 134.302 C 411.256 134.003 411.177 133.772 411.036 133.608 C 410.895 133.444 410.591 133.326 410.122 133.256 L 409.094 133.019 C 408.567 132.907 408.159 132.767 407.872 132.597 C 407.585 132.427 407.383 132.206 407.266 131.934 C 407.149 131.661 407.078 131.317 407.055 130.901 C 407.037 130.689 407.052 130.458 407.099 130.207 C 407.11 129.497 407.302 128.99 407.674 128.686 C 408.046 128.381 408.724 128.229 409.709 128.229 C 410.652 128.229 411.307 128.378 411.673 128.677 C 412.04 128.975 412.24 129.468 412.275 130.154 C 412.275 130.329 412.274 130.53 412.271 130.756 C 412.268 130.981 412.258 131.179 412.24 131.349 L 411.177 131.349 C 411.206 131.143 411.219 130.909 411.216 130.646 C 411.213 130.382 411.206 130.177 411.194 130.031 C 411.188 129.72 411.081 129.506 410.873 129.389 C 410.665 129.271 410.277 129.213 409.709 129.213 C 409.135 129.213 408.744 129.271 408.536 129.389 C 408.328 129.506 408.212 129.72 408.188 130.031 C 408.183 130.177 408.174 130.298 408.162 130.395 C 408.15 130.492 408.147 130.625 408.153 130.795 C 408.171 131 408.202 131.182 408.246 131.34 C 408.289 131.498 408.389 131.629 408.544 131.731 C 408.699 131.833 408.953 131.911 409.305 131.964 L 410.289 132.166 C 411.004 132.312 411.525 132.54 411.853 132.848 C 412.182 133.155 412.346 133.619 412.346 134.241 C 412.346 134.369 412.344 134.507 412.341 134.654 C 412.338 134.8 412.331 134.941 412.319 135.076 C 412.278 135.761 412.063 136.253 411.673 136.552 C 411.284 136.85 410.603 137 409.63 137 Z" style="fill: rgb(51, 51, 51); text-wrap-mode: nowrap;" transform="matrix(1, 0, 0, 1, 5.684341886080802e-14, 5.684341886080802e-14)"/>
  <path d="M 207.16 136.011 L 207.16 139.109 L 192.613 139.109 L 192.613 104.544 L 207.16 104.544 L 207.16 107.642 L 195.977 107.642 L 195.977 120.132 L 206.41 120.132 L 206.41 123.23 L 195.977 123.23 L 195.977 136.011 L 207.16 136.011 Z M 250.482 146.932 C 250.482 146.932 255.461 144.126 265.48 144.325 C 272.937 144.474 285.204 146.796 285.204 146.796 C 286.384 147.048 286.713 147.048 288.069 147.048 C 288.408 147.048 288.671 147.068 288.981 147.048 C 289.91 146.986 290.611 146.611 291.002 146.349 C 291.003 146.347 291.006 146.345 291.008 146.344 C 291.26 146.168 291.47 145.937 291.622 145.669 C 291.806 145.357 291.944 144.973 292.037 144.517 L 293.235 139.109 L 289.967 139.109 L 285.61 115.557 L 288.805 115.557 L 290.426 126.789 L 292.29 136.422 L 293.768 136.422 L 295.752 126.789 L 297.471 115.557 L 300.69 115.557 L 295.111 144.274 C 295.027 144.814 294.902 145.346 294.736 145.867 C 294.38 146.965 293.859 147.806 293.174 148.389 C 292.8 148.698 292.376 148.941 291.92 149.106 C 290.968 149.468 289.724 149.648 288.188 149.648 C 287.834 149.648 287.431 149.637 286.98 149.614 C 286.766 149.603 286.453 149.635 286.238 149.62 C 286.067 149.609 285.595 149.574 285.141 149.555 C 281.426 149.398 268.954 148.103 258.975 150.888 C 255.964 151.728 252.574 153.065 247.758 156.084 C 246.651 156.778 249.291 150.848 250.482 146.932 Z M 228.897 134.195 L 228.897 115.557 L 231.995 115.557 L 231.995 134.462 C 231.993 134.688 232.017 134.913 232.067 135.134 C 232.174 135.591 232.399 135.948 232.746 136.204 C 233.246 136.576 234.061 136.761 235.191 136.761 C 236.336 136.761 237.341 136.567 238.204 136.18 C 238.558 136.024 238.891 135.827 239.197 135.59 C 239.563 135.308 239.87 134.957 240.104 134.558 L 240.104 115.557 L 243.251 115.557 L 243.251 139.109 L 240.104 139.109 L 240.104 136.882 L 239.45 136.882 C 238.621 138.207 237.243 139.092 235.693 139.295 C 235.247 139.366 234.795 139.401 234.343 139.4 C 233.191 139.4 232.221 139.235 231.433 138.907 C 231.006 138.735 230.611 138.492 230.264 138.189 C 229.835 137.8 229.506 137.313 229.306 136.77 C 229.033 136.068 228.897 135.21 228.897 134.195 Z M 258.863 124.755 L 258.863 120.277 C 258.866 120.036 258.833 119.797 258.767 119.565 C 258.639 119.131 258.354 118.759 257.968 118.522 C 257.486 118.216 256.716 118.034 255.656 117.975 C 255.387 117.96 255.115 117.953 254.845 117.953 C 254.506 117.953 254.167 117.966 253.829 117.992 C 253.027 118.057 252.385 118.206 251.903 118.438 C 251.384 118.679 251.006 119.148 250.882 119.708 C 250.84 119.87 250.815 120.037 250.802 120.205 C 250.778 120.514 250.763 120.924 250.757 121.436 C 250.755 121.602 250.754 121.769 250.754 121.936 C 250.754 122.2 250.756 122.466 250.761 122.73 C 250.768 123.144 250.782 123.513 250.802 123.835 L 247.777 123.835 C 247.769 123.727 247.76 123.619 247.753 123.51 C 247.732 123.211 247.711 122.862 247.691 122.462 C 247.687 122.395 247.684 122.329 247.68 122.262 C 247.656 121.774 247.654 121.327 247.677 120.922 C 247.683 120.796 247.692 120.67 247.705 120.544 C 247.76 119.248 248.07 118.201 248.632 117.404 C 248.88 117.052 249.184 116.743 249.531 116.489 C 249.964 116.183 250.44 115.944 250.944 115.779 C 251.85 115.47 252.974 115.294 254.314 115.252 C 254.531 115.246 254.748 115.242 254.966 115.242 C 255.567 115.24 256.168 115.269 256.765 115.328 C 257.976 115.452 258.946 115.712 259.676 116.11 C 259.927 116.245 260.162 116.409 260.375 116.598 C 260.851 117.035 261.216 117.579 261.441 118.184 C 261.613 118.624 261.739 119.119 261.816 119.669 C 261.879 120.127 261.912 120.589 261.913 121.052 L 261.913 139.109 L 258.863 139.109 L 258.863 136.882 L 258.185 136.882 C 257.808 137.66 257.206 138.306 256.455 138.734 C 255.712 139.158 254.656 139.371 253.288 139.376 C 253.275 139.376 253.261 139.376 253.247 139.376 C 252.733 139.378 252.219 139.347 251.708 139.284 C 250.532 139.131 249.607 138.789 248.933 138.257 C 248.914 138.243 248.896 138.228 248.878 138.213 C 248.354 137.775 247.948 137.215 247.693 136.581 C 247.516 136.159 247.384 135.688 247.297 135.168 C 247.264 134.974 247.239 134.779 247.221 134.582 C 247.204 134.26 247.184 133.937 247.16 133.615 C 247.149 133.478 247.144 133.341 247.144 133.204 C 247.144 133.025 247.153 132.847 247.172 132.67 C 247.218 132.034 247.346 131.406 247.554 130.802 C 247.775 130.167 248.104 129.575 248.527 129.051 C 249.318 128.075 250.819 127.183 253.029 126.377 C 253.817 126.097 254.615 125.848 255.421 125.629 C 255.575 125.587 255.73 125.546 255.886 125.506 C 256.877 125.25 257.869 124.999 258.863 124.755 Z M 224.492 115.557 L 224.492 146.951 L 221.393 146.951 L 221.393 136.882 L 220.739 136.882 C 220.174 137.77 219.509 138.411 218.743 138.806 C 218.151 139.112 217.416 139.299 216.54 139.369 C 216.27 139.39 216 139.4 215.73 139.4 C 215.213 139.402 214.697 139.365 214.187 139.287 C 213.109 139.116 212.247 138.75 211.602 138.189 C 211.164 137.799 210.822 137.314 210.602 136.77 C 210.43 136.364 210.3 135.907 210.213 135.397 C 210.146 134.999 210.106 134.597 210.089 134.195 C 210.077 133.868 210.065 133.54 210.055 133.213 C 210.045 132.919 210.037 132.608 210.028 132.28 C 210.019 131.933 210.012 131.588 210.004 131.242 C 209.98 130.08 209.969 128.85 209.969 127.551 C 209.969 126.28 209.976 125.009 209.993 123.739 C 209.999 123.223 210.009 122.707 210.023 122.191 C 210.04 121.564 210.062 120.982 210.089 120.447 C 210.108 119.959 210.162 119.474 210.252 118.995 C 210.348 118.503 210.483 118.065 210.656 117.678 C 210.858 117.21 211.156 116.789 211.529 116.441 C 211.929 116.087 212.395 115.816 212.899 115.644 C 213.642 115.376 214.545 115.242 215.608 115.242 C 216.002 115.241 216.396 115.261 216.787 115.303 C 217.163 115.344 217.506 115.407 217.818 115.491 C 218.144 115.576 218.459 115.7 218.755 115.86 C 219.212 116.117 219.626 116.443 219.983 116.828 C 220.254 117.116 220.499 117.429 220.715 117.759 L 221.393 117.759 L 221.393 115.557 L 224.492 115.557 Z M 271.958 104.544 L 271.958 139.109 L 268.593 139.109 L 268.593 108.248 L 266.198 108.248 L 265.931 106.843 L 269.151 104.544 L 271.958 104.544 Z M 282.027 104.544 L 282.027 139.109 L 278.663 139.109 L 278.663 108.248 L 276.266 108.248 L 276 106.843 L 279.22 104.544 L 282.027 104.544 Z M 221.393 134.558 L 221.393 120.083 C 220.686 118.846 219.407 118.131 217.555 117.936 C 217.19 117.898 216.823 117.88 216.455 117.88 C 215.48 117.88 214.74 118.02 214.236 118.298 C 214.166 118.337 214.099 118.379 214.035 118.425 C 213.72 118.657 213.488 118.985 213.373 119.359 C 213.309 119.556 213.267 119.773 213.246 120.012 C 213.241 120.068 213.238 120.124 213.236 120.18 C 213.124 122.656 213.064 125.133 213.054 127.611 C 213.054 127.755 213.054 127.897 213.054 128.04 C 213.054 129.463 213.077 130.832 213.125 132.149 C 213.153 132.92 213.19 133.691 213.236 134.462 C 213.291 135.766 214.111 136.515 215.696 136.71 C 215.996 136.745 216.298 136.762 216.601 136.761 C 217.892 136.761 218.9 136.591 219.626 136.253 C 220.352 135.914 220.941 135.349 221.393 134.558 Z M 258.839 134.679 L 258.839 127.345 C 258.142 127.491 257.449 127.653 256.76 127.833 C 256.658 127.86 256.556 127.887 256.455 127.915 C 256.128 128.002 255.803 128.094 255.479 128.192 C 254.903 128.363 254.271 128.565 253.587 128.798 C 253.255 128.919 252.929 129.057 252.612 129.211 C 251.976 129.523 251.495 129.86 251.166 130.224 C 251.097 130.301 251.032 130.382 250.972 130.467 C 250.536 131.097 250.286 131.831 250.222 132.67 C 250.238 132.913 250.25 133.175 250.258 133.457 C 250.264 133.676 250.278 133.895 250.297 134.113 C 250.303 134.189 250.311 134.265 250.318 134.34 C 250.37 134.734 250.515 135.111 250.74 135.438 C 250.938 135.717 251.19 135.952 251.481 136.132 C 251.835 136.353 252.224 136.514 252.632 136.609 C 252.959 136.688 253.313 136.736 253.695 136.754 C 253.804 136.759 253.913 136.761 254.022 136.761 C 254.592 136.765 255.161 136.716 255.722 136.615 C 257.148 136.343 258.187 135.698 258.839 134.679 Z" vector-effect="non-scaling-stroke" style="" transform="matrix(1, 0, 0, 1, 5.684341886080802e-14, 5.684341886080802e-14)"/>
  <rect x="311.848" y="104.544" width="1.747" height="34.821" style="" transform="matrix(1, 0, 0, 1, 5.684341886080802e-14, 5.684341886080802e-14)"/>
</svg>