<?xml version="1.0" encoding="utf-8"?>
<svg xmlns="http://www.w3.org/2000/svg" viewBox="2.353 6.196 218.018 86.4588">
  <g id="g-1" stroke-linecap="round" fill-rule="evenodd" font-size="9pt" stroke="#000" stroke-width="0.25mm" fill="#000" style="stroke:#000;stroke-width:0.25mm;fill:#000" transform="matrix(0.9999999999999999, 0, 0, 0.9999999999999999, 2.3529999256132896, 6.1960000991821005)">
    <path d="M 29.346 63.477 L 29.346 69.727 L 0 69.727 L 0 0 L 29.346 0 L 29.346 6.25 L 6.787 6.25 L 5.787 31.445 L 27.832 31.445 L 27.832 37.695 L 6.787 37.695 L 6.787 63.477 L 29.346 63.477 Z M 112.663 86.453 L 112.624 80.513 C 114.642 80.676 190.869 80.371 193.604 80.371 C 194.232 80.372 194.859 80.353 195.486 80.313 C 197.358 80.188 198.687 79.861 199.474 79.33 C 199.478 79.327 199.483 79.324 199.487 79.321 C 199.996 78.965 200.42 78.5 200.726 77.96 C 201.096 77.33 201.375 76.555 201.563 75.635 L 202.979 69.727 L 196.387 69.727 L 187.598 22.217 L 194.043 22.217 L 197.314 44.873 L 201.074 64.307 L 204.053 64.307 L 208.057 44.873 L 211.523 22.217 L 218.018 22.217 L 207.764 75.146 C 207.595 76.234 207.342 77.308 207.008 78.358 C 206.288 80.574 205.238 82.27 203.857 83.447 C 203.102 84.071 202.246 84.56 201.325 84.893 C 199.405 85.622 196.896 85.986 193.799 85.986 C 193.083 85.986 192.296 86.019 191.387 85.973 C 190.954 85.951 190.518 85.947 190.085 85.918 C 189.739 85.895 189.37 85.987 189.024 85.962 C 188.033 85.889 113.371 86.526 112.663 86.453 Z M 73.193 59.814 L 73.193 22.217 L 79.443 22.217 L 79.443 60.352 C 79.439 60.808 79.488 61.262 79.588 61.707 C 79.803 62.63 80.259 63.35 80.957 63.867 C 81.966 64.616 83.61 64.99 85.889 64.99 C 88.2 64.99 90.226 64.599 91.968 63.818 C 92.682 63.504 93.355 63.105 93.972 62.628 C 94.709 62.058 95.33 61.351 95.801 60.547 L 95.801 22.217 L 102.148 22.217 L 102.148 69.727 L 95.801 69.727 L 95.801 65.234 L 94.482 65.234 C 92.809 67.907 90.029 69.692 86.903 70.102 C 86.003 70.246 85.092 70.316 84.18 70.312 C 81.856 70.313 79.899 69.982 78.309 69.32 C 77.448 68.971 76.652 68.481 75.952 67.871 C 75.086 67.086 74.423 66.103 74.018 65.007 C 73.468 63.592 73.193 61.861 73.193 59.814 Z M 133.643 40.771 L 133.643 31.738 C 133.648 31.252 133.582 30.769 133.448 30.302 C 133.191 29.425 132.616 28.674 131.836 28.198 C 130.865 27.581 129.311 27.213 127.174 27.094 C 126.629 27.064 126.083 27.05 125.537 27.051 C 124.854 27.049 124.17 27.075 123.489 27.128 C 121.87 27.259 120.575 27.559 119.604 28.027 C 118.556 28.514 117.794 29.461 117.542 30.589 C 117.46 30.918 117.407 31.254 117.383 31.592 C 117.333 32.215 117.302 33.043 117.291 34.076 C 117.287 34.412 117.285 34.747 117.285 35.083 C 117.285 35.617 117.289 36.152 117.299 36.686 C 117.314 37.521 117.342 38.265 117.383 38.916 L 111.279 38.916 C 111.262 38.697 111.245 38.479 111.23 38.26 C 111.189 37.657 111.147 36.952 111.105 36.146 C 111.098 36.011 111.091 35.877 111.084 35.742 C 111.035 34.757 111.032 33.856 111.076 33.039 C 111.09 32.784 111.109 32.529 111.133 32.275 C 111.246 29.661 111.869 27.55 113.004 25.942 C 113.504 25.232 114.117 24.609 114.819 24.097 C 115.691 23.479 116.651 22.996 117.668 22.665 C 119.497 22.042 121.763 21.687 124.465 21.602 C 124.904 21.588 125.342 21.582 125.781 21.582 C 126.993 21.577 128.205 21.634 129.411 21.753 C 131.853 22.004 133.81 22.53 135.282 23.332 C 135.789 23.604 136.263 23.935 136.694 24.316 C 137.654 25.198 138.39 26.294 138.843 27.516 C 139.19 28.403 139.443 29.402 139.6 30.511 C 139.727 31.436 139.792 32.368 139.795 33.301 L 139.795 69.727 L 133.643 69.727 L 133.643 65.234 L 132.275 65.234 C 131.516 66.804 130.299 68.106 128.784 68.97 C 127.285 69.824 125.156 70.255 122.397 70.264 C 122.369 70.264 122.342 70.264 122.314 70.264 C 121.276 70.269 120.239 70.206 119.209 70.078 C 116.837 69.771 114.971 69.081 113.611 68.008 C 113.574 67.979 113.537 67.95 113.501 67.92 C 112.444 67.036 111.623 65.905 111.11 64.627 C 110.753 63.777 110.487 62.827 110.311 61.776 C 110.246 61.385 110.194 60.991 110.156 60.596 C 110.123 59.945 110.083 59.293 110.034 58.643 C 110.013 58.367 110.003 58.091 110.003 57.814 C 110.003 57.455 110.022 57.095 110.059 56.738 C 110.151 55.454 110.41 54.187 110.83 52.97 C 111.276 51.689 111.94 50.494 112.793 49.438 C 114.388 47.469 117.416 45.67 121.875 44.043 C 123.463 43.478 125.072 42.975 126.698 42.534 C 127.01 42.449 127.323 42.366 127.637 42.285 C 129.636 41.769 131.638 41.264 133.643 40.771 Z M 64.307 22.217 L 64.307 85.547 L 58.057 85.547 L 58.057 65.234 L 56.738 65.234 C 55.599 67.025 54.256 68.319 52.71 69.116 C 51.515 69.733 50.034 70.111 48.266 70.251 C 47.722 70.293 47.177 70.313 46.631 70.312 C 45.59 70.318 44.549 70.243 43.52 70.086 C 41.345 69.741 39.607 69.003 38.306 67.871 C 37.423 67.084 36.732 66.104 36.288 65.007 C 35.941 64.189 35.679 63.266 35.503 62.237 C 35.369 61.435 35.286 60.626 35.254 59.814 C 35.228 59.153 35.204 58.493 35.184 57.832 C 35.165 57.24 35.148 56.613 35.131 55.95 C 35.113 55.252 35.097 54.555 35.083 53.857 C 35.034 51.514 35.01 49.032 35.01 46.411 C 35.01 43.848 35.026 41.284 35.059 38.721 C 35.072 37.68 35.092 36.64 35.12 35.599 C 35.155 34.334 35.199 33.161 35.254 32.08 C 35.291 31.097 35.4 30.118 35.582 29.151 C 35.775 28.16 36.047 27.274 36.398 26.495 C 36.806 25.55 37.406 24.7 38.159 23.999 C 38.965 23.286 39.904 22.739 40.922 22.39 C 42.42 21.851 44.242 21.582 46.387 21.582 C 47.182 21.579 47.976 21.619 48.766 21.703 C 49.523 21.787 50.216 21.914 50.845 22.083 C 51.502 22.254 52.137 22.504 52.734 22.827 C 53.656 23.346 54.492 24.004 55.212 24.779 C 55.758 25.362 56.252 25.992 56.689 26.66 L 58.057 26.66 L 58.057 22.217 L 64.307 22.217 Z M 157.059 0 L 157.059 69.727 L 151.271 69.727 L 151.271 7.471 L 146.438 7.471 L 145.9 4.639 L 152.395 0 L 157.059 0 Z M 177.371 0 L 177.371 69.727 L 171.584 69.727 L 171.584 7.471 L 166.75 7.471 L 166.213 4.639 L 172.707 0 L 177.371 0 Z M 58.057 60.547 L 58.057 31.348 C 56.631 28.852 54.05 27.408 50.314 27.015 C 49.577 26.939 48.837 26.902 48.096 26.904 C 46.129 26.904 44.637 27.185 43.619 27.746 C 43.478 27.823 43.343 27.909 43.213 28.003 C 42.577 28.471 42.109 29.131 41.879 29.886 C 41.749 30.283 41.664 30.722 41.623 31.203 C 41.613 31.316 41.606 31.43 41.602 31.543 C 41.376 36.537 41.254 41.534 41.235 46.533 C 41.234 46.821 41.234 47.109 41.234 47.397 C 41.234 50.267 41.282 53.03 41.378 55.686 C 41.434 57.242 41.508 58.798 41.602 60.352 C 41.713 62.983 43.367 64.494 46.564 64.887 C 47.17 64.958 47.779 64.993 48.389 64.99 C 50.993 64.99 53.027 64.648 54.492 63.965 C 55.957 63.281 57.145 62.142 58.057 60.547 Z M 133.594 60.791 L 133.594 45.996 C 132.188 46.29 130.789 46.618 129.399 46.981 C 129.194 47.035 128.989 47.089 128.784 47.144 C 128.125 47.321 127.469 47.507 126.815 47.703 C 125.654 48.05 124.381 48.458 122.998 48.926 C 122.329 49.171 121.673 49.449 121.032 49.76 C 119.749 50.389 118.778 51.069 118.117 51.802 C 117.976 51.958 117.845 52.122 117.725 52.295 C 116.846 53.564 116.341 55.045 116.211 56.738 C 116.244 57.227 116.268 57.756 116.284 58.325 C 116.297 58.767 116.323 59.208 116.362 59.648 C 116.375 59.801 116.39 59.954 116.406 60.107 C 116.511 60.902 116.802 61.661 117.257 62.322 C 117.657 62.883 118.164 63.359 118.75 63.721 C 119.466 64.167 120.251 64.492 121.073 64.683 C 121.732 64.843 122.447 64.941 123.217 64.976 C 123.437 64.986 123.657 64.99 123.877 64.99 C 125.027 64.999 126.175 64.899 127.306 64.694 C 130.183 64.148 132.279 62.847 133.594 60.791 Z" vector-effect="non-scaling-stroke"/>
  </g>
</svg>