<?xml version="1.0" encoding="utf-8"?>
<svg xmlns="http://www.w3.org/2000/svg" viewBox="138.3096 103.4994 303.0675 51.6404">
  <g transform="matrix(0.09180300682783127, 0, 0, 0.09057900309562683, 138.35545349121094, 103.54473876953125)" style="">
    <path style="opacity:1" fill="#fefbfb" d="M -0.5,-0.5 C 3.16667,-0.5 6.83333,-0.5 10.5,-0.5C 5.83333,2.16667 2.16667,5.83333 -0.5,10.5C -0.5,6.83333 -0.5,3.16667 -0.5,-0.5 Z"/>
  </g>
  <g transform="matrix(0.08954301476478577, 0, 0, 0.08834900707006454, 139.3077850341797, 103.54362487792969)" style="">
    <path style="opacity: 1; fill: rgb(171, 28, 24);" d="M 10.5,-0.5 C 150.833,-0.5 291.167,-0.5 431.5,-0.5C 436.753,1.75103 440.753,5.4177 443.5,10.5C 443.5,136.167 443.5,261.833 443.5,387.5C 441.167,393.167 437.167,397.167 431.5,399.5C 291.167,399.5 150.833,399.5 10.5,399.5C 5.4177,396.753 1.75103,392.753 -0.5,387.5C -0.5,261.833 -0.5,136.167 -0.5,10.5C 2.16667,5.83333 5.83333,2.16667 10.5,-0.5 Z"/>
  </g>
  <g transform="matrix(0.09180300682783127, 0, 0, 0.09057900309562683, 138.35545349121094, 103.54473876953125)" style="">
    <path style="opacity:1" fill="#fefbfb" d="M 431.5,-0.5 C 435.5,-0.5 439.5,-0.5 443.5,-0.5C 443.5,3.16667 443.5,6.83333 443.5,10.5C 440.753,5.4177 436.753,1.75103 431.5,-0.5 Z"/>
  </g>
  <g transform="matrix(0.09180300682783127, 0, 0, 0.09057900309562683, 138.35545349121094, 103.54473876953125)" style="">
    <path style="opacity:1" fill="#fdfbfb" d="M 100.5,29.5 C 180.167,29.3333 259.834,29.5 339.5,30C 342.937,31.1049 345.437,33.2716 347,36.5C 347.667,91.5 347.667,146.5 347,201.5C 345.833,204.667 343.667,206.833 340.5,208C 259.752,208.994 179.085,208.661 98.5,207C 96.6217,205.457 95.1217,203.624 94,201.5C 93.3333,146.5 93.3333,91.5 94,36.5C 95.6941,33.6424 97.8607,31.309 100.5,29.5 Z"/>
  </g>
  <g transform="matrix(0.09180300682783127, 0, 0, 0.09057900309562683, 138.35545349121094, 103.54473876953125)" style="">
    <path style="opacity: 1; fill: rgb(171, 28, 24);" d="M 114.5,47.5 C 186.225,47.0096 257.891,47.5096 329.5,49C 331,50.5 332.5,52 334,53.5C 334.667,97.8333 334.667,142.167 334,186.5C 332.749,189.381 330.583,191.214 327.5,192C 256.5,192.667 185.5,192.667 114.5,192C 111.417,191.214 109.251,189.381 108,186.5C 107.333,142.167 107.333,97.8333 108,53.5C 110.063,51.2659 112.229,49.2659 114.5,47.5 Z"/>
  </g>
  <g transform="matrix(0.09180300682783127, 0, 0, 0.09057900309562683, 138.35545349121094, 103.54473876953125)" style="">
    <path style="opacity:1" fill="#fdfdfd" d="M 189.5,85.5 C 204.212,83.6217 214.879,89.2883 221.5,102.5C 229.887,85.8015 242.554,81.3015 259.5,89C 272.836,101.363 274.003,114.863 263,129.5C 249.833,140 236.667,150.5 223.5,161C 222.167,161.667 220.833,161.667 219.5,161C 207.5,151.667 195.5,142.333 183.5,133C 172.246,122.586 169.746,110.419 176,96.5C 179.819,91.8329 184.319,88.1663 189.5,85.5 Z"/>
  </g>
  <g transform="matrix(0.09180300682783127, 0, 0, 0.09057900309562683, 138.35545349121094, 103.54473876953125)" style="">
    <path style="opacity:1" fill="#fdfefe" d="M 97.5,213.5 C 180.891,213.008 264.224,213.508 347.5,215C 351.383,218.983 353.55,223.816 354,229.5C 360.786,263.549 367.786,297.549 375,331.5C 377.185,337.379 376.852,343.046 374,348.5C 372.59,349.787 371.09,350.954 369.5,352C 270.833,352.667 172.167,352.667 73.5,352C 70.2716,350.437 68.1049,347.937 67,344.5C 66.5752,340.131 66.9085,335.797 68,331.5C 76.1061,293.866 84.1061,256.2 92,218.5C 93.7297,216.598 95.563,214.931 97.5,213.5 Z"/>
  </g>
  <g transform="matrix(0.09180300682783127, 0, 0, 0.09057900309562683, 138.35545349121094, 103.54473876953125)" style="">
    <path style="opacity:1" fill="#fdfdfd" d="M 67.5,357.5 C 170.167,357.333 272.834,357.5 375.5,358C 377.347,363.98 375.347,368.313 369.5,371C 270.833,371.667 172.167,371.667 73.5,371C 67.4978,368.17 65.4978,363.67 67.5,357.5 Z"/>
  </g>
  <g transform="matrix(0.09180300682783127, 0, 0, 0.09057900309562683, 138.35545349121094, 103.54473876953125)" style="">
    <path style="opacity:1" fill="#fefbfb" d="M -0.5,387.5 C 1.75103,392.753 5.4177,396.753 10.5,399.5C 6.83333,399.5 3.16667,399.5 -0.5,399.5C -0.5,395.5 -0.5,391.5 -0.5,387.5 Z"/>
  </g>
  <g transform="matrix(0.09180300682783127, 0, 0, 0.09057900309562683, 138.35545349121094, 103.54473876953125)" style="">
    <path style="opacity:1" fill="#fefafa" d="M 443.5,387.5 C 443.5,391.5 443.5,395.5 443.5,399.5C 439.5,399.5 435.5,399.5 431.5,399.5C 437.167,397.167 441.167,393.167 443.5,387.5 Z"/>
  </g>
  <path d="M 209.16 135.011 L 209.16 138.109 L 194.613 138.109 L 194.613 103.544 L 209.16 103.544 L 209.16 106.642 L 197.977 106.642 L 197.977 119.132 L 208.41 119.132 L 208.41 122.23 L 197.977 122.23 L 197.977 135.011 L 209.16 135.011 Z M 252.482 145.932 C 252.482 145.932 257.461 143.126 267.48 143.325 C 274.937 143.474 287.204 145.796 287.204 145.796 C 288.384 146.048 288.713 146.048 290.069 146.048 C 290.408 146.048 290.671 146.068 290.981 146.048 C 291.91 145.986 292.611 145.611 293.002 145.349 C 293.003 145.347 293.006 145.345 293.008 145.344 C 293.26 145.168 293.47 144.937 293.622 144.669 C 293.806 144.357 293.944 143.973 294.037 143.517 L 295.235 138.109 L 291.967 138.109 L 287.61 114.557 L 290.805 114.557 L 292.426 125.789 L 294.29 135.422 L 295.768 135.422 L 297.752 125.789 L 299.471 114.557 L 302.69 114.557 L 297.111 143.274 C 297.027 143.814 296.902 144.346 296.736 144.867 C 296.38 145.965 295.859 146.806 295.174 147.389 C 294.8 147.698 294.376 147.941 293.92 148.106 C 292.968 148.468 291.724 148.648 290.188 148.648 C 289.834 148.648 289.431 148.637 288.98 148.614 C 288.766 148.603 288.453 148.635 288.238 148.62 C 288.067 148.609 287.595 148.574 287.141 148.555 C 283.426 148.398 270.954 147.103 260.975 149.888 C 257.964 150.728 254.574 152.065 249.758 155.084 C 248.651 155.778 251.291 149.848 252.482 145.932 Z M 230.897 133.195 L 230.897 114.557 L 233.995 114.557 L 233.995 133.462 C 233.993 133.688 234.017 133.913 234.067 134.134 C 234.174 134.591 234.399 134.948 234.746 135.204 C 235.246 135.576 236.061 135.761 237.191 135.761 C 238.336 135.761 239.341 135.567 240.204 135.18 C 240.558 135.024 240.891 134.827 241.197 134.59 C 241.563 134.308 241.87 133.957 242.104 133.558 L 242.104 114.557 L 245.251 114.557 L 245.251 138.109 L 242.104 138.109 L 242.104 135.882 L 241.45 135.882 C 240.621 137.207 239.243 138.092 237.693 138.295 C 237.247 138.366 236.795 138.401 236.343 138.4 C 235.191 138.4 234.221 138.235 233.433 137.907 C 233.006 137.735 232.611 137.492 232.264 137.189 C 231.835 136.8 231.506 136.313 231.306 135.77 C 231.033 135.068 230.897 134.21 230.897 133.195 Z M 260.863 123.755 L 260.863 119.277 C 260.866 119.036 260.833 118.797 260.767 118.565 C 260.639 118.131 260.354 117.759 259.968 117.522 C 259.486 117.216 258.716 117.034 257.656 116.975 C 257.387 116.96 257.115 116.953 256.845 116.953 C 256.506 116.953 256.167 116.966 255.829 116.992 C 255.027 117.057 254.385 117.206 253.903 117.438 C 253.384 117.679 253.006 118.148 252.882 118.708 C 252.84 118.87 252.815 119.037 252.802 119.205 C 252.778 119.514 252.763 119.924 252.757 120.436 C 252.755 120.602 252.754 120.769 252.754 120.936 C 252.754 121.2 252.756 121.466 252.761 121.73 C 252.768 122.144 252.782 122.513 252.802 122.835 L 249.777 122.835 C 249.769 122.727 249.76 122.619 249.753 122.51 C 249.732 122.211 249.711 121.862 249.691 121.462 C 249.687 121.395 249.684 121.329 249.68 121.262 C 249.656 120.774 249.654 120.327 249.677 119.922 C 249.683 119.796 249.692 119.67 249.705 119.544 C 249.76 118.248 250.07 117.201 250.632 116.404 C 250.88 116.052 251.184 115.743 251.531 115.489 C 251.964 115.183 252.44 114.944 252.944 114.779 C 253.85 114.47 254.974 114.294 256.314 114.252 C 256.531 114.246 256.748 114.242 256.966 114.242 C 257.567 114.24 258.168 114.269 258.765 114.328 C 259.976 114.452 260.946 114.712 261.676 115.11 C 261.927 115.245 262.162 115.409 262.375 115.598 C 262.851 116.035 263.216 116.579 263.441 117.184 C 263.613 117.624 263.739 118.119 263.816 118.669 C 263.879 119.127 263.912 119.589 263.913 120.052 L 263.913 138.109 L 260.863 138.109 L 260.863 135.882 L 260.185 135.882 C 259.808 136.66 259.206 137.306 258.455 137.734 C 257.712 138.158 256.656 138.371 255.288 138.376 C 255.275 138.376 255.261 138.376 255.247 138.376 C 254.733 138.378 254.219 138.347 253.708 138.284 C 252.532 138.131 251.607 137.789 250.933 137.257 C 250.914 137.243 250.896 137.228 250.878 137.213 C 250.354 136.775 249.948 136.215 249.693 135.581 C 249.516 135.159 249.384 134.688 249.297 134.168 C 249.264 133.974 249.239 133.779 249.221 133.582 C 249.204 133.26 249.184 132.937 249.16 132.615 C 249.149 132.478 249.144 132.341 249.144 132.204 C 249.144 132.025 249.153 131.847 249.172 131.67 C 249.218 131.034 249.346 130.406 249.554 129.802 C 249.775 129.167 250.104 128.575 250.527 128.051 C 251.318 127.075 252.819 126.183 255.029 125.377 C 255.817 125.097 256.615 124.848 257.421 124.629 C 257.575 124.587 257.73 124.546 257.886 124.506 C 258.877 124.25 259.869 123.999 260.863 123.755 Z M 226.492 114.557 L 226.492 145.951 L 223.393 145.951 L 223.393 135.882 L 222.739 135.882 C 222.174 136.77 221.509 137.411 220.743 137.806 C 220.151 138.112 219.416 138.299 218.54 138.369 C 218.27 138.39 218 138.4 217.73 138.4 C 217.213 138.402 216.697 138.365 216.187 138.287 C 215.109 138.116 214.247 137.75 213.602 137.189 C 213.164 136.799 212.822 136.314 212.602 135.77 C 212.43 135.364 212.3 134.907 212.213 134.397 C 212.146 133.999 212.106 133.597 212.089 133.195 C 212.077 132.868 212.065 132.54 212.055 132.213 C 212.045 131.919 212.037 131.608 212.028 131.28 C 212.019 130.933 212.012 130.588 212.004 130.242 C 211.98 129.08 211.969 127.85 211.969 126.551 C 211.969 125.28 211.976 124.009 211.993 122.739 C 211.999 122.223 212.009 121.707 212.023 121.191 C 212.04 120.564 212.062 119.982 212.089 119.447 C 212.108 118.959 212.162 118.474 212.252 117.995 C 212.348 117.503 212.483 117.065 212.656 116.678 C 212.858 116.21 213.156 115.789 213.529 115.441 C 213.929 115.087 214.395 114.816 214.899 114.644 C 215.642 114.376 216.545 114.242 217.608 114.242 C 218.002 114.241 218.396 114.261 218.787 114.303 C 219.163 114.344 219.506 114.407 219.818 114.491 C 220.144 114.576 220.459 114.7 220.755 114.86 C 221.212 115.117 221.626 115.443 221.983 115.828 C 222.254 116.116 222.499 116.429 222.715 116.759 L 223.393 116.759 L 223.393 114.557 L 226.492 114.557 Z M 273.714 103.544 L 273.714 138.109 L 270.593 138.109 L 270.593 107.248 L 268.198 107.248 L 267.931 105.843 L 271.151 103.544 L 273.714 103.544 Z M 283.748 103.557 L 283.748 138.122 L 280.663 138.109 L 280.663 107.248 L 278.266 107.248 L 278 105.843 L 281.22 103.544 L 283.748 103.557 Z M 223.393 133.558 L 223.393 119.083 C 222.686 117.846 221.407 117.131 219.555 116.936 C 219.19 116.898 218.823 116.88 218.455 116.88 C 217.48 116.88 216.74 117.02 216.236 117.298 C 216.166 117.337 216.099 117.379 216.035 117.425 C 215.72 117.657 215.488 117.985 215.373 118.359 C 215.309 118.556 215.267 118.773 215.246 119.012 C 215.241 119.068 215.238 119.124 215.236 119.18 C 215.124 121.656 215.064 124.133 215.054 126.611 C 215.054 126.755 215.054 126.897 215.054 127.04 C 215.054 128.463 215.077 129.832 215.125 131.149 C 215.153 131.92 215.19 132.691 215.236 133.462 C 215.291 134.766 216.111 135.515 217.696 135.71 C 217.996 135.745 218.298 135.762 218.601 135.761 C 219.892 135.761 220.9 135.591 221.626 135.253 C 222.352 134.914 222.941 134.349 223.393 133.558 Z M 260.839 133.679 L 260.839 126.345 C 260.142 126.491 259.449 126.653 258.76 126.833 C 258.658 126.86 258.556 126.887 258.455 126.915 C 258.128 127.002 257.803 127.094 257.479 127.192 C 256.903 127.363 256.271 127.565 255.587 127.798 C 255.255 127.919 254.929 128.057 254.612 128.211 C 253.976 128.523 253.495 128.86 253.166 129.224 C 253.097 129.301 253.032 129.382 252.972 129.467 C 252.536 130.097 252.286 130.831 252.222 131.67 C 252.238 131.913 252.25 132.175 252.258 132.457 C 252.264 132.676 252.278 132.895 252.297 133.113 C 252.303 133.189 252.311 133.265 252.318 133.34 C 252.37 133.734 252.515 134.111 252.74 134.438 C 252.938 134.717 253.19 134.952 253.481 135.132 C 253.835 135.353 254.224 135.514 254.632 135.609 C 254.959 135.688 255.313 135.736 255.695 135.754 C 255.804 135.759 255.913 135.761 256.022 135.761 C 256.592 135.765 257.161 135.716 257.722 135.615 C 259.148 135.343 260.187 134.698 260.839 133.679 Z" vector-effect="non-scaling-stroke" style="" transform="matrix(1, 0, 0, 1, -1.7763568394002505e-15, 7.105427357601002e-15)"/>
  <rect x="317.848" y="104.544" width="2.415" height="34.295" style="" transform="matrix(1, 0, 0, 1, -1.7763568394002505e-15, 7.105427357601002e-15)"/>
  <path d="M 338.285 118.154 L 335.915 118.154 L 338.295 104.111 L 342.287 104.111 L 344.668 118.154 L 342.307 118.154 L 341.806 115.007 L 338.797 115.007 L 338.285 118.154 Z M 339.436 109.824 L 339.003 112.922 L 341.589 112.922 L 341.166 109.824 L 340.655 106.196 L 339.947 106.196 L 339.436 109.824 Z M 352.345 112.254 L 350.25 112.254 C 350.257 112.155 350.262 112.015 350.265 111.835 C 350.268 111.655 350.27 111.475 350.27 111.295 C 350.27 111.114 350.267 110.988 350.26 110.916 C 350.247 110.66 350.138 110.475 349.931 110.36 C 349.724 110.246 349.392 110.188 348.933 110.188 C 348.473 110.188 348.142 110.246 347.94 110.36 C 347.736 110.475 347.628 110.66 347.615 110.916 C 347.582 111.676 347.565 112.483 347.565 113.335 C 347.565 114.187 347.582 114.984 347.615 115.724 C 347.628 116.02 347.738 116.23 347.944 116.354 C 348.151 116.479 348.49 116.541 348.962 116.541 C 349.414 116.541 349.74 116.479 349.94 116.354 C 350.141 116.23 350.247 116.02 350.26 115.724 C 350.267 115.6 350.27 115.425 350.27 115.199 C 350.27 114.972 350.264 114.718 350.25 114.436 L 352.345 114.436 C 352.364 114.489 352.376 114.632 352.38 114.864 C 352.383 115.097 352.378 115.302 352.365 115.479 C 352.319 116.488 352.034 117.211 351.509 117.647 C 350.985 118.083 350.136 118.301 348.962 118.301 C 347.756 118.301 346.882 118.083 346.342 117.647 C 345.801 117.211 345.504 116.488 345.452 115.479 C 345.439 115.295 345.427 115.015 345.417 114.638 C 345.408 114.261 345.403 113.853 345.403 113.414 C 345.403 112.974 345.406 112.561 345.412 112.174 C 345.419 111.788 345.432 111.493 345.452 111.29 C 345.51 110.254 345.81 109.518 346.352 109.082 C 346.892 108.646 347.753 108.428 348.933 108.428 C 350.126 108.428 350.988 108.641 351.519 109.068 C 352.05 109.494 352.332 110.202 352.365 111.192 C 352.378 111.362 352.383 111.569 352.38 111.811 C 352.376 112.053 352.364 112.201 352.345 112.254 Z M 360.379 112.254 L 358.284 112.254 C 358.291 112.155 358.296 112.015 358.299 111.835 C 358.303 111.655 358.304 111.475 358.304 111.295 C 358.304 111.114 358.301 110.988 358.294 110.916 C 358.281 110.66 358.172 110.475 357.965 110.36 C 357.759 110.246 357.426 110.188 356.967 110.188 C 356.508 110.188 356.177 110.246 355.974 110.36 C 355.77 110.475 355.662 110.66 355.649 110.916 C 355.616 111.676 355.6 112.483 355.6 113.335 C 355.6 114.187 355.616 114.984 355.649 115.724 C 355.662 116.02 355.772 116.23 355.978 116.354 C 356.185 116.479 356.524 116.541 356.996 116.541 C 357.448 116.541 357.775 116.479 357.974 116.354 C 358.175 116.23 358.281 116.02 358.294 115.724 C 358.301 115.6 358.304 115.425 358.304 115.199 C 358.304 114.972 358.298 114.718 358.284 114.436 L 360.379 114.436 C 360.398 114.489 360.41 114.632 360.414 114.864 C 360.417 115.097 360.412 115.302 360.399 115.479 C 360.353 116.488 360.068 117.211 359.543 117.647 C 359.019 118.083 358.17 118.301 356.996 118.301 C 355.79 118.301 354.916 118.083 354.376 117.647 C 353.834 117.211 353.538 116.488 353.486 115.479 C 353.473 115.295 353.461 115.015 353.451 114.638 C 353.441 114.261 353.436 113.853 353.436 113.414 C 353.436 112.974 353.439 112.561 353.446 112.174 C 353.453 111.788 353.466 111.493 353.486 111.29 C 353.545 110.254 353.845 109.518 354.386 109.082 C 354.926 108.646 355.787 108.428 356.967 108.428 C 358.16 108.428 359.022 108.641 359.553 109.068 C 360.084 109.494 360.366 110.202 360.399 111.192 C 360.412 111.362 360.417 111.569 360.414 111.811 C 360.41 112.053 360.398 112.201 360.379 112.254 Z M 365.06 118.301 C 363.84 118.301 362.959 118.083 362.414 117.647 C 361.87 117.211 361.572 116.488 361.52 115.479 C 361.506 115.295 361.495 115.015 361.485 114.638 C 361.475 114.261 361.47 113.853 361.47 113.414 C 361.47 112.974 361.474 112.561 361.48 112.174 C 361.487 111.788 361.5 111.493 361.52 111.29 C 361.579 110.254 361.884 109.518 362.435 109.082 C 362.985 108.646 363.854 108.428 365.04 108.428 C 366.207 108.428 367.055 108.641 367.583 109.068 C 368.11 109.494 368.396 110.202 368.442 111.192 C 368.456 111.303 368.467 111.506 368.477 111.801 C 368.487 112.096 368.49 112.421 368.486 112.775 C 368.483 113.129 368.466 113.456 368.433 113.758 L 363.644 113.758 C 363.644 114.105 363.647 114.445 363.654 114.776 C 363.66 115.107 363.67 115.423 363.683 115.724 C 363.69 116.02 363.8 116.23 364.012 116.354 C 364.226 116.479 364.571 116.541 365.05 116.541 C 365.502 116.541 365.823 116.479 366.014 116.354 C 366.204 116.23 366.312 116.02 366.339 115.724 C 366.351 115.462 366.351 115.033 366.339 114.436 L 368.433 114.436 C 368.446 114.489 368.454 114.632 368.457 114.864 C 368.461 115.097 368.456 115.302 368.442 115.479 C 368.396 116.488 368.116 117.211 367.602 117.647 C 367.087 118.083 366.24 118.301 365.06 118.301 Z M 363.644 112.126 L 366.348 112.126 C 366.355 111.837 366.358 111.575 366.358 111.339 C 366.358 111.103 366.351 110.962 366.339 110.916 C 366.312 110.66 366.201 110.475 366.004 110.36 C 365.807 110.246 365.486 110.188 365.04 110.188 C 364.562 110.188 364.219 110.246 364.012 110.36 C 363.806 110.475 363.696 110.66 363.683 110.916 C 363.676 111.106 363.67 111.303 363.663 111.506 C 363.657 111.709 363.65 111.916 363.644 112.126 Z M 372.799 118.301 C 371.613 118.301 370.772 118.083 370.277 117.647 C 369.782 117.211 369.512 116.488 369.466 115.479 C 369.459 115.302 369.458 115.097 369.461 114.864 C 369.464 114.632 369.472 114.489 369.486 114.436 L 371.394 114.436 C 371.38 114.718 371.375 114.972 371.378 115.199 C 371.382 115.425 371.387 115.6 371.394 115.724 C 371.406 116.02 371.523 116.23 371.742 116.354 C 371.962 116.479 372.314 116.541 372.799 116.541 C 373.33 116.541 373.711 116.479 373.94 116.354 C 374.17 116.23 374.288 116.02 374.294 115.724 C 374.301 115.593 374.306 115.518 374.309 115.498 C 374.312 115.479 374.315 115.459 374.318 115.439 C 374.322 115.42 374.32 115.348 374.314 115.223 C 374.307 115.053 374.24 114.91 374.112 114.796 C 373.984 114.681 373.727 114.6 373.34 114.555 L 372.033 114.24 C 371.128 114.037 370.472 113.745 370.066 113.364 C 369.659 112.984 369.443 112.447 369.417 111.752 C 369.41 111.607 369.417 111.457 369.436 111.299 C 369.45 110.27 369.709 109.534 370.213 109.092 C 370.718 108.649 371.613 108.428 372.898 108.428 C 374.097 108.428 374.941 108.641 375.43 109.068 C 375.918 109.494 376.186 110.202 376.232 111.192 C 376.232 111.362 376.23 111.569 376.226 111.811 C 376.223 112.053 376.215 112.201 376.202 112.254 L 374.215 112.254 C 374.228 112.155 374.237 112.015 374.24 111.835 C 374.243 111.655 374.243 111.475 374.24 111.295 C 374.237 111.114 374.232 110.988 374.225 110.916 C 374.212 110.66 374.11 110.475 373.92 110.36 C 373.73 110.246 373.389 110.188 372.898 110.188 C 372.399 110.188 372.054 110.246 371.861 110.36 C 371.667 110.475 371.56 110.66 371.541 110.916 C 371.534 111.04 371.526 111.127 371.516 111.177 C 371.506 111.226 371.505 111.345 371.511 111.535 C 371.524 111.739 371.583 111.911 371.688 112.052 C 371.793 112.193 372.075 112.293 372.534 112.352 L 373.724 112.587 C 374.596 112.764 375.246 113.042 375.676 113.418 C 376.105 113.795 376.32 114.354 376.32 115.095 C 376.32 115.161 376.32 115.233 376.32 115.312 C 376.32 115.39 376.317 115.465 376.31 115.538 C 376.284 116.528 376.007 117.236 375.479 117.662 C 374.951 118.088 374.058 118.301 372.799 118.301 Z M 380.615 118.301 C 379.429 118.301 378.588 118.083 378.093 117.647 C 377.598 117.211 377.328 116.488 377.282 115.479 C 377.275 115.302 377.273 115.097 377.277 114.864 C 377.28 114.632 377.288 114.489 377.301 114.436 L 379.209 114.436 C 379.196 114.718 379.191 114.972 379.194 115.199 C 379.198 115.425 379.203 115.6 379.209 115.724 C 379.222 116.02 379.339 116.23 379.559 116.354 C 379.778 116.479 380.13 116.541 380.615 116.541 C 381.146 116.541 381.527 116.479 381.756 116.354 C 381.985 116.23 382.103 116.02 382.11 115.724 C 382.117 115.593 382.122 115.518 382.125 115.498 C 382.128 115.479 382.131 115.459 382.135 115.439 C 382.138 115.42 382.136 115.348 382.129 115.223 C 382.123 115.053 382.056 114.91 381.928 114.796 C 381.8 114.681 381.543 114.6 381.157 114.555 L 379.848 114.24 C 378.944 114.037 378.288 113.745 377.882 113.364 C 377.475 112.984 377.259 112.447 377.232 111.752 C 377.226 111.607 377.233 111.457 377.253 111.299 C 377.265 110.27 377.524 109.534 378.03 109.092 C 378.534 108.649 379.429 108.428 380.713 108.428 C 381.914 108.428 382.758 108.641 383.246 109.068 C 383.734 109.494 384.001 110.202 384.047 111.192 C 384.047 111.362 384.046 111.569 384.043 111.811 C 384.039 112.053 384.031 112.201 384.018 112.254 L 382.032 112.254 C 382.045 112.155 382.053 112.015 382.056 111.835 C 382.059 111.655 382.059 111.475 382.056 111.295 C 382.053 111.114 382.048 110.988 382.041 110.916 C 382.028 110.66 381.927 110.475 381.737 110.36 C 381.547 110.246 381.206 110.188 380.713 110.188 C 380.216 110.188 379.87 110.246 379.676 110.36 C 379.483 110.475 379.376 110.66 379.356 110.916 C 379.35 111.04 379.342 111.127 379.332 111.177 C 379.323 111.226 379.321 111.345 379.327 111.535 C 379.34 111.739 379.4 111.911 379.504 112.052 C 379.609 112.193 379.891 112.293 380.35 112.352 L 381.54 112.587 C 382.412 112.764 383.062 113.042 383.492 113.418 C 383.921 113.795 384.136 114.354 384.136 115.095 C 384.136 115.161 384.136 115.233 384.136 115.312 C 384.136 115.39 384.133 115.465 384.126 115.538 C 384.1 116.528 383.823 117.236 383.295 117.662 C 382.767 118.088 381.874 118.301 380.615 118.301 Z M 387.657 107.189 L 385.483 107.189 L 385.483 105.389 L 387.657 105.389 L 387.657 107.189 Z M 387.657 118.154 L 385.483 118.154 L 385.483 108.585 L 387.657 108.585 L 387.657 118.154 Z M 393.744 118.301 C 393.186 118.301 392.765 118.199 392.48 117.996 C 392.195 117.793 391.931 117.501 391.688 117.121 L 391.413 117.121 L 391.413 118.154 L 389.25 118.154 L 389.25 105.389 L 391.413 105.389 L 391.413 109.608 L 391.816 109.608 C 392.065 109.221 392.332 108.928 392.617 108.728 C 392.903 108.528 393.324 108.428 393.881 108.428 C 394.629 108.428 395.188 108.633 395.558 109.043 C 395.928 109.452 396.133 110.142 396.172 111.113 C 396.186 111.368 396.197 111.696 396.207 112.096 C 396.217 112.496 396.222 112.919 396.222 113.364 C 396.222 113.81 396.217 114.233 396.207 114.633 C 396.197 115.033 396.186 115.361 396.172 115.617 C 396.133 116.58 395.905 117.269 395.489 117.682 C 395.073 118.094 394.491 118.301 393.744 118.301 Z M 393.006 116.57 C 393.353 116.57 393.604 116.51 393.758 116.388 C 393.912 116.267 393.999 116.078 394.019 115.823 C 394.052 115.404 394.073 114.899 394.083 114.309 C 394.093 113.719 394.093 113.121 394.083 112.514 C 394.073 111.908 394.052 111.372 394.019 110.906 C 393.999 110.65 393.912 110.46 393.758 110.336 C 393.604 110.211 393.353 110.149 393.006 110.149 C 392.665 110.149 392.347 110.211 392.052 110.336 C 391.757 110.46 391.544 110.627 391.413 110.838 L 391.413 115.892 C 391.544 116.095 391.757 116.259 392.052 116.384 C 392.347 116.508 392.665 116.57 393.006 116.57 Z M 399.841 107.189 L 397.667 107.189 L 397.667 105.389 L 399.841 105.389 L 399.841 107.189 Z M 399.841 118.154 L 397.667 118.154 L 397.667 108.585 L 399.841 108.585 L 399.841 118.154 Z M 403.793 118.154 L 401.6 118.154 L 401.6 105.389 L 403.793 105.389 L 403.793 118.154 Z M 407.726 107.189 L 405.553 107.189 L 405.553 105.389 L 407.726 105.389 L 407.726 107.189 Z M 407.726 118.154 L 405.553 118.154 L 405.553 108.585 L 407.726 108.585 L 407.726 118.154 Z M 413.036 118.301 C 411.856 118.301 411.019 118.083 410.524 117.647 C 410.029 117.211 409.781 116.488 409.781 115.479 L 409.781 110.365 L 408.857 110.365 L 408.857 108.585 L 409.791 108.585 L 409.791 105.872 L 411.964 105.872 L 411.964 108.585 L 413.704 108.585 L 413.704 110.365 L 411.934 110.365 L 411.934 115.745 C 411.934 116.027 412.007 116.231 412.151 116.359 C 412.295 116.487 412.597 116.551 413.056 116.551 C 413.2 116.551 413.333 116.549 413.454 116.546 C 413.575 116.542 413.715 116.538 413.872 116.531 L 413.872 118.223 C 413.754 118.255 413.625 118.276 413.484 118.286 C 413.343 118.296 413.193 118.301 413.036 118.301 Z M 416.095 121.507 C 415.872 121.507 415.621 121.495 415.343 121.473 C 415.064 121.45 414.816 121.425 414.6 121.398 L 414.6 119.639 C 414.79 119.645 415.029 119.653 415.318 119.663 C 415.606 119.673 415.858 119.678 416.075 119.678 C 416.632 119.678 417.014 119.614 417.22 119.486 C 417.427 119.358 417.559 119.154 417.618 118.872 L 417.825 118.154 L 416.429 118.154 L 414.432 108.585 L 416.635 108.585 L 417.284 112.903 L 417.884 116.413 L 418.533 116.413 L 418.996 112.903 L 419.586 108.585 L 421.779 108.585 L 419.772 118.685 C 419.668 119.353 419.486 119.894 419.226 120.307 C 418.968 120.72 418.589 121.023 418.091 121.217 C 417.593 121.41 416.927 121.507 416.095 121.507 Z" style="fill: rgb(51, 51, 51); text-wrap-mode: nowrap;" transform="matrix(1, 0, 0, 1, -1.7763568394002505e-15, 7.105427357601002e-15)"/>
  <path d="M 340.832 138.293 L 338.531 138.293 L 338.531 126.336 L 335.857 126.336 L 335.857 124.25 L 343.497 124.25 L 343.497 126.336 L 340.832 126.336 L 340.832 138.293 Z M 347.764 138.44 C 346.545 138.44 345.663 138.222 345.119 137.787 C 344.575 137.351 344.276 136.628 344.224 135.618 C 344.211 135.435 344.2 135.154 344.19 134.777 C 344.18 134.4 344.175 133.992 344.175 133.553 C 344.175 133.114 344.178 132.701 344.185 132.314 C 344.191 131.927 344.204 131.632 344.224 131.429 C 344.283 130.394 344.588 129.658 345.139 129.222 C 345.69 128.785 346.558 128.567 347.744 128.567 C 348.911 128.567 349.759 128.781 350.287 129.207 C 350.814 129.633 351.101 130.341 351.147 131.331 C 351.16 131.443 351.171 131.646 351.181 131.941 C 351.191 132.236 351.194 132.56 351.191 132.914 C 351.188 133.268 351.17 133.596 351.137 133.897 L 346.349 133.897 C 346.349 134.245 346.352 134.584 346.358 134.915 C 346.365 135.246 346.374 135.562 346.387 135.864 C 346.394 136.159 346.504 136.369 346.717 136.494 C 346.93 136.618 347.276 136.68 347.754 136.68 C 348.207 136.68 348.528 136.618 348.718 136.494 C 348.908 136.369 349.016 136.159 349.043 135.864 C 349.056 135.602 349.056 135.172 349.043 134.576 L 351.137 134.576 C 351.151 134.628 351.159 134.771 351.162 135.003 C 351.165 135.236 351.16 135.441 351.147 135.618 C 351.101 136.628 350.821 137.351 350.307 137.787 C 349.792 138.222 348.944 138.44 347.764 138.44 Z M 346.349 132.265 L 349.053 132.265 C 349.059 131.977 349.063 131.714 349.063 131.478 C 349.063 131.242 349.056 131.101 349.043 131.055 C 349.016 130.8 348.905 130.615 348.709 130.5 C 348.512 130.385 348.191 130.328 347.744 130.328 C 347.266 130.328 346.924 130.385 346.717 130.5 C 346.511 130.615 346.401 130.8 346.387 131.055 C 346.381 131.245 346.375 131.442 346.368 131.646 C 346.361 131.849 346.355 132.056 346.349 132.265 Z M 355.502 138.44 C 354.315 138.44 353.474 138.222 352.979 137.787 C 352.484 137.351 352.214 136.628 352.168 135.618 C 352.161 135.441 352.16 135.236 352.163 135.003 C 352.167 134.771 352.175 134.628 352.187 134.576 L 354.095 134.576 C 354.082 134.858 354.077 135.112 354.081 135.338 C 354.084 135.564 354.089 135.74 354.095 135.864 C 354.109 136.159 354.225 136.369 354.445 136.494 C 354.664 136.618 355.017 136.68 355.502 136.68 C 356.033 136.68 356.413 136.618 356.642 136.494 C 356.872 136.369 356.99 136.159 356.996 135.864 C 357.003 135.733 357.008 135.657 357.011 135.638 C 357.014 135.618 357.018 135.599 357.021 135.579 C 357.024 135.559 357.022 135.487 357.016 135.363 C 357.01 135.192 356.942 135.05 356.815 134.935 C 356.687 134.82 356.429 134.74 356.043 134.694 L 354.734 134.379 C 353.83 134.176 353.174 133.884 352.768 133.504 C 352.361 133.124 352.145 132.586 352.118 131.891 C 352.112 131.747 352.119 131.596 352.139 131.439 C 352.152 130.41 352.411 129.674 352.916 129.231 C 353.42 128.789 354.315 128.567 355.6 128.567 C 356.8 128.567 357.644 128.781 358.132 129.207 C 358.62 129.633 358.887 130.341 358.933 131.331 C 358.933 131.501 358.932 131.708 358.929 131.951 C 358.926 132.193 358.917 132.34 358.904 132.393 L 356.918 132.393 C 356.931 132.294 356.939 132.155 356.943 131.975 C 356.946 131.794 356.946 131.614 356.943 131.434 C 356.939 131.254 356.934 131.128 356.927 131.055 C 356.914 130.8 356.813 130.615 356.623 130.5 C 356.433 130.385 356.092 130.328 355.6 130.328 C 355.102 130.328 354.756 130.385 354.562 130.5 C 354.369 130.615 354.263 130.8 354.243 131.055 C 354.236 131.18 354.228 131.267 354.218 131.316 C 354.209 131.365 354.207 131.485 354.214 131.675 C 354.227 131.878 354.286 132.051 354.39 132.192 C 354.495 132.333 354.777 132.433 355.236 132.491 L 356.426 132.727 C 357.298 132.904 357.949 133.181 358.378 133.558 C 358.808 133.935 359.022 134.494 359.022 135.235 C 359.022 135.301 359.022 135.373 359.022 135.451 C 359.022 135.53 359.019 135.605 359.012 135.677 C 358.986 136.667 358.709 137.375 358.181 137.801 C 357.653 138.227 356.76 138.44 355.502 138.44 Z M 363.91 138.44 C 362.73 138.44 361.893 138.222 361.397 137.787 C 360.903 137.351 360.655 136.628 360.655 135.618 L 360.655 130.505 L 359.73 130.505 L 359.73 128.725 L 360.665 128.725 L 360.665 126.011 L 362.838 126.011 L 362.838 128.725 L 364.579 128.725 L 364.579 130.505 L 362.809 130.505 L 362.809 135.884 C 362.809 136.166 362.881 136.371 363.025 136.498 C 363.169 136.626 363.47 136.69 363.93 136.69 C 364.074 136.69 364.206 136.689 364.328 136.685 C 364.449 136.682 364.588 136.677 364.746 136.67 L 364.746 138.362 C 364.628 138.395 364.498 138.416 364.357 138.426 C 364.216 138.435 364.067 138.44 363.91 138.44 Z M 368.08 127.329 L 365.906 127.329 L 365.906 125.529 L 368.08 125.529 L 368.08 127.329 Z M 368.08 138.293 L 365.906 138.293 L 365.906 128.725 L 368.08 128.725 L 368.08 138.293 Z M 371.836 138.293 L 369.672 138.293 L 369.672 128.725 L 371.836 128.725 L 371.836 129.748 L 372.239 129.748 C 372.468 129.361 372.727 129.068 373.016 128.868 C 373.304 128.667 373.714 128.567 374.245 128.567 C 374.972 128.567 375.533 128.772 375.926 129.182 C 376.32 129.592 376.517 130.282 376.517 131.252 L 376.517 138.293 L 374.363 138.293 L 374.363 131.046 C 374.363 130.541 374.032 130.288 373.37 130.288 C 373.062 130.288 372.76 130.351 372.465 130.475 C 372.17 130.6 371.96 130.767 371.836 130.977 L 371.836 138.293 Z M 380.94 141.508 C 379.95 141.508 379.194 141.378 378.673 141.116 C 378.152 140.853 377.845 140.493 377.754 140.034 C 377.747 139.968 377.739 139.879 377.729 139.768 C 377.719 139.656 377.721 139.548 377.734 139.443 C 377.76 139.207 377.88 138.988 378.093 138.785 C 378.306 138.582 378.589 138.464 378.944 138.431 L 378.944 138.096 C 378.282 138.004 377.921 137.693 377.861 137.162 C 377.842 137.018 377.842 136.848 377.861 136.651 C 377.888 136.422 378.014 136.235 378.24 136.09 C 378.466 135.946 378.75 135.851 379.091 135.805 L 379.091 135.47 C 378.632 135.261 378.293 134.953 378.073 134.546 C 377.853 134.14 377.721 133.599 377.675 132.924 C 377.655 132.596 377.644 132.321 377.641 132.098 C 377.637 131.875 377.648 131.652 377.675 131.429 C 377.734 130.433 378.002 129.707 378.481 129.251 C 378.96 128.795 379.779 128.567 380.94 128.567 C 381.687 128.567 382.277 128.654 382.71 128.828 C 383.142 129.002 383.477 129.276 383.713 129.649 L 384.047 129.649 C 384.093 129.321 384.223 129.085 384.435 128.941 C 384.649 128.797 384.972 128.725 385.404 128.725 L 385.404 130.505 L 385.109 130.505 C 384.821 130.505 384.596 130.562 384.435 130.676 C 384.275 130.792 384.188 131.003 384.175 131.311 L 384.175 131.763 C 384.175 131.967 384.177 132.145 384.18 132.299 C 384.183 132.454 384.175 132.662 384.155 132.924 C 384.089 133.973 383.819 134.715 383.344 135.151 C 382.869 135.587 382.064 135.805 380.93 135.805 C 380.379 135.805 379.997 135.839 379.784 135.908 C 379.571 135.977 379.465 136.087 379.465 136.238 L 379.465 136.287 C 379.471 136.444 379.554 136.551 379.715 136.607 C 379.876 136.663 380.277 136.697 380.92 136.71 C 382.061 136.723 382.907 136.903 383.457 137.25 C 384.008 137.598 384.329 138.09 384.421 138.726 C 384.447 138.942 384.447 139.195 384.421 139.483 C 384.277 140.833 383.116 141.508 380.94 141.508 Z M 380.92 134.025 C 381.34 134.025 381.625 133.953 381.775 133.809 C 381.926 133.665 382.015 133.488 382.041 133.278 C 382.061 133.127 382.074 132.909 382.081 132.624 C 382.087 132.339 382.087 132.052 382.081 131.763 C 382.074 131.475 382.061 131.256 382.041 131.105 C 382.015 130.849 381.921 130.656 381.761 130.525 C 381.6 130.394 381.32 130.328 380.92 130.328 C 380.52 130.328 380.236 130.395 380.069 130.529 C 379.902 130.664 379.812 130.865 379.799 131.134 C 379.74 132.065 379.74 132.76 379.799 133.219 C 379.812 133.422 379.892 133.608 380.04 133.775 C 380.187 133.942 380.481 134.025 380.92 134.025 Z M 380.988 139.886 C 381.992 139.886 382.546 139.693 382.651 139.306 C 382.69 139.162 382.684 139.001 382.631 138.824 C 382.513 138.451 381.969 138.264 380.999 138.264 C 380.074 138.264 379.56 138.447 379.455 138.814 C 379.416 138.992 379.412 139.155 379.445 139.306 C 379.497 139.49 379.648 139.632 379.897 139.734 C 380.146 139.836 380.51 139.886 380.988 139.886 Z M 394.353 138.45 C 392.871 138.45 391.807 138.196 391.161 137.688 C 390.516 137.18 390.186 136.336 390.173 135.156 C 390.094 131.517 390.094 127.882 390.173 124.25 L 392.474 124.25 C 392.428 126.047 392.405 127.937 392.405 129.92 C 392.405 131.903 392.418 133.796 392.445 135.598 C 392.445 136.215 393.081 136.523 394.353 136.523 C 395.591 136.523 396.211 136.215 396.211 135.598 C 396.244 133.796 396.262 131.903 396.265 129.92 C 396.268 127.937 396.25 126.047 396.211 124.25 L 398.512 124.25 C 398.591 127.882 398.591 131.517 398.512 135.156 C 398.505 136.336 398.178 137.18 397.528 137.688 C 396.879 138.196 395.821 138.45 394.353 138.45 Z M 403.548 138.44 C 402.367 138.44 401.53 138.222 401.035 137.787 C 400.54 137.351 400.292 136.628 400.292 135.618 L 400.292 130.505 L 399.368 130.505 L 399.368 128.725 L 400.302 128.725 L 400.302 126.011 L 402.476 126.011 L 402.476 128.725 L 404.216 128.725 L 404.216 130.505 L 402.446 130.505 L 402.446 135.884 C 402.446 136.166 402.518 136.371 402.662 136.498 C 402.807 136.626 403.108 136.69 403.567 136.69 C 403.711 136.69 403.844 136.689 403.965 136.685 C 404.087 136.682 404.226 136.677 404.384 136.67 L 404.384 138.362 C 404.265 138.395 404.136 138.416 403.995 138.426 C 403.854 138.435 403.705 138.44 403.548 138.44 Z M 407.717 127.329 L 405.544 127.329 L 405.544 125.529 L 407.717 125.529 L 407.717 127.329 Z M 407.717 138.293 L 405.544 138.293 L 405.544 128.725 L 407.717 128.725 L 407.717 138.293 Z M 411.67 138.293 L 409.477 138.293 L 409.477 125.529 L 411.67 125.529 L 411.67 138.293 Z M 415.603 127.329 L 413.429 127.329 L 413.429 125.529 L 415.603 125.529 L 415.603 127.329 Z M 415.603 138.293 L 413.429 138.293 L 413.429 128.725 L 415.603 128.725 L 415.603 138.293 Z M 420.913 138.44 C 419.733 138.44 418.895 138.222 418.4 137.787 C 417.905 137.351 417.658 136.628 417.658 135.618 L 417.658 130.505 L 416.733 130.505 L 416.733 128.725 L 417.668 128.725 L 417.668 126.011 L 419.841 126.011 L 419.841 128.725 L 421.581 128.725 L 421.581 130.505 L 419.811 130.505 L 419.811 135.884 C 419.811 136.166 419.883 136.371 420.027 136.498 C 420.172 136.626 420.473 136.69 420.932 136.69 C 421.077 136.69 421.21 136.689 421.331 136.685 C 421.452 136.682 421.591 136.677 421.748 136.67 L 421.748 138.362 C 421.631 138.395 421.501 138.416 421.36 138.426 C 421.219 138.435 421.07 138.44 420.913 138.44 Z M 425.082 127.329 L 422.909 127.329 L 422.909 125.529 L 425.082 125.529 L 425.082 127.329 Z M 425.082 138.293 L 422.909 138.293 L 422.909 128.725 L 425.082 128.725 L 425.082 138.293 Z M 430.116 138.44 C 428.897 138.44 428.015 138.222 427.471 137.787 C 426.927 137.351 426.629 136.628 426.577 135.618 C 426.564 135.435 426.552 135.154 426.542 134.777 C 426.533 134.4 426.528 133.992 426.528 133.553 C 426.528 133.114 426.531 132.701 426.537 132.314 C 426.544 131.927 426.557 131.632 426.577 131.429 C 426.635 130.394 426.94 129.658 427.491 129.222 C 428.042 128.785 428.91 128.567 430.097 128.567 C 431.264 128.567 432.112 128.781 432.639 129.207 C 433.167 129.633 433.454 130.341 433.5 131.331 C 433.513 131.443 433.524 131.646 433.534 131.941 C 433.544 132.236 433.547 132.56 433.544 132.914 C 433.54 133.268 433.522 133.596 433.49 133.897 L 428.7 133.897 C 428.7 134.245 428.704 134.584 428.711 134.915 C 428.717 135.246 428.727 135.562 428.74 135.864 C 428.747 136.159 428.856 136.369 429.069 136.494 C 429.282 136.618 429.628 136.68 430.107 136.68 C 430.56 136.68 430.881 136.618 431.071 136.494 C 431.261 136.369 431.369 136.159 431.395 135.864 C 431.408 135.602 431.408 135.172 431.395 134.576 L 433.49 134.576 C 433.503 134.628 433.511 134.771 433.515 135.003 C 433.518 135.236 433.513 135.441 433.5 135.618 C 433.454 136.628 433.174 137.351 432.659 137.787 C 432.144 138.222 431.297 138.44 430.116 138.44 Z M 428.7 132.265 L 431.405 132.265 C 431.412 131.977 431.415 131.714 431.415 131.478 C 431.415 131.242 431.408 131.101 431.395 131.055 C 431.369 130.8 431.257 130.615 431.061 130.5 C 430.864 130.385 430.543 130.328 430.097 130.328 C 429.618 130.328 429.276 130.385 429.069 130.5 C 428.863 130.615 428.753 130.8 428.74 131.055 C 428.733 131.245 428.727 131.442 428.721 131.646 C 428.714 131.849 428.707 132.056 428.7 132.265 Z M 437.856 138.44 C 436.67 138.44 435.829 138.222 435.334 137.787 C 434.839 137.351 434.569 136.628 434.523 135.618 C 434.516 135.441 434.515 135.236 434.518 135.003 C 434.521 134.771 434.53 134.628 434.542 134.576 L 436.45 134.576 C 436.437 134.858 436.432 135.112 436.436 135.338 C 436.439 135.564 436.444 135.74 436.45 135.864 C 436.463 136.159 436.579 136.369 436.799 136.494 C 437.019 136.618 437.371 136.68 437.856 136.68 C 438.388 136.68 438.768 136.618 438.997 136.494 C 439.226 136.369 439.344 136.159 439.351 135.864 C 439.358 135.733 439.363 135.657 439.366 135.638 C 439.369 135.618 439.372 135.599 439.376 135.579 C 439.379 135.559 439.377 135.487 439.371 135.363 C 439.364 135.192 439.297 135.05 439.169 134.935 C 439.041 134.82 438.784 134.74 438.397 134.694 L 437.089 134.379 C 436.185 134.176 435.529 133.884 435.123 133.504 C 434.716 133.124 434.5 132.586 434.474 131.891 C 434.467 131.747 434.473 131.596 434.493 131.439 C 434.506 130.41 434.765 129.674 435.27 129.231 C 435.775 128.789 436.67 128.567 437.955 128.567 C 439.154 128.567 439.998 128.781 440.487 129.207 C 440.975 129.633 441.242 130.341 441.288 131.331 C 441.288 131.501 441.287 131.708 441.284 131.951 C 441.28 132.193 441.272 132.34 441.259 132.393 L 439.272 132.393 C 439.286 132.294 439.294 132.155 439.297 131.975 C 439.3 131.794 439.3 131.614 439.297 131.434 C 439.294 131.254 439.289 131.128 439.282 131.055 C 439.269 130.8 439.168 130.615 438.977 130.5 C 438.787 130.385 438.446 130.328 437.955 130.328 C 437.456 130.328 437.111 130.385 436.917 130.5 C 436.724 130.615 436.617 130.8 436.597 131.055 C 436.591 131.18 436.583 131.267 436.573 131.316 C 436.563 131.365 436.561 131.485 436.568 131.675 C 436.581 131.878 436.641 132.051 436.745 132.192 C 436.85 132.333 437.132 132.433 437.591 132.491 L 438.781 132.727 C 439.653 132.904 440.303 133.181 440.733 133.558 C 441.162 133.935 441.377 134.494 441.377 135.235 C 441.377 135.301 441.377 135.373 441.377 135.451 C 441.377 135.53 441.373 135.605 441.367 135.677 C 441.341 136.667 441.064 137.375 440.536 137.801 C 440.009 138.227 439.115 138.44 437.856 138.44 Z" style="fill: rgb(51, 51, 51); text-wrap-mode: nowrap;" transform="matrix(1, 0, 0, 1, -1.7763568394002505e-15, 7.105427357601002e-15)"/>
</svg>